<svg version="1.1" xmlns="http://www.w3.org/2000/svg" xmlns:xlink="http://www.w3.org/1999/xlink" width="400" height="400" style="width: 400px; height: 400px;"><defs><clipPath id="yOMHMTlTtOTn"><path fill="none" stroke="none" d=" M 61 32 L 370 32 L 370 351 L 61 351 L 61 32 Z"/></clipPath><clipPath id="sXLeivdscVss"><path fill="none" stroke="none" d=" M 61 32 L 370 32 L 370 351 L 61 351 L 61 32 Z"/></clipPath></defs><g><g transform="scale(1,1) translate(0.5,0.5)"><rect fill="#FFFFFF" stroke="none" x="0" y="0" width="400" height="400"/><rect fill="#ffffff" stroke="none" x="0" y="0" width="400" height="400"/><rect fill="#FFFFFF" stroke="none" x="61" y="32" width="309" height="319"/><rect fill="#ffffff" stroke="none" x="61" y="32" width="309" height="319"/><g><rect fill="none" stroke="#e5e5e5" x="61" y="32" width="309" height="319" stroke-linejoin="bevel" stroke-miterlimit="10"/></g><g clip-path="url(#yOMHMTlTtOTn)"><g><g><path fill="none" stroke="#e5e5e5" paint-order="fill stroke markers" d=" M 75 351 L 75 32" stroke-linejoin="bevel" stroke-miterlimit="10"/><path fill="none" stroke="#e5e5e5" paint-order="fill stroke markers" d=" M 131 351 L 131 32" stroke-linejoin="bevel" stroke-miterlimit="10"/><path fill="none" stroke="#e5e5e5" paint-order="fill stroke markers" d=" M 187 351 L 187 32" stroke-linejoin="bevel" stroke-miterlimit="10"/><path fill="none" stroke="#e5e5e5" paint-order="fill stroke markers" d=" M 244 351 L 244 32" stroke-linejoin="bevel" stroke-miterlimit="10"/><path fill="none" stroke="#e5e5e5" paint-order="fill stroke markers" d=" M 300 351 L 300 32" stroke-linejoin="bevel" stroke-miterlimit="10"/><path fill="none" stroke="#e5e5e5" paint-order="fill stroke markers" d=" M 356 351 L 356 32" stroke-linejoin="bevel" stroke-miterlimit="10"/></g><g><path fill="none" stroke="#e5e5e5" paint-order="fill stroke markers" d=" M 61 343 L 370 343" stroke-linejoin="bevel" stroke-miterlimit="10"/><path fill="none" stroke="#e5e5e5" paint-order="fill stroke markers" d=" M 61 303 L 370 303" stroke-linejoin="bevel" stroke-miterlimit="10"/><path fill="none" stroke="#e5e5e5" paint-order="fill stroke markers" d=" M 61 263 L 370 263" stroke-linejoin="bevel" stroke-miterlimit="10"/><path fill="none" stroke="#e5e5e5" paint-order="fill stroke markers" d=" M 61 222 L 370 222" stroke-linejoin="bevel" stroke-miterlimit="10"/><path fill="none" stroke="#e5e5e5" paint-order="fill stroke markers" d=" M 61 182 L 370 182" stroke-linejoin="bevel" stroke-miterlimit="10"/><path fill="none" stroke="#e5e5e5" paint-order="fill stroke markers" d=" M 61 142 L 370 142" stroke-linejoin="bevel" stroke-miterlimit="10"/><path fill="none" stroke="#e5e5e5" paint-order="fill stroke markers" d=" M 61 101 L 370 101" stroke-linejoin="bevel" stroke-miterlimit="10"/><path fill="none" stroke="#e5e5e5" paint-order="fill stroke markers" d=" M 61 61 L 370 61" stroke-linejoin="bevel" stroke-miterlimit="10"/></g><g><path fill="none" stroke="none"/><path fill="none" stroke="red" paint-order="fill stroke markers" d=" M 75.04545454545455 46.49999999999994 L 76.1690909090909 54.60897190042249 L 77.29272727272726 61.00425794098544 L 78.41636363636363 64.63379561960016 L 79.53999999999999 68.99032647509046 L 80.66363636363636 73.92071789287775 L 81.78727272727272 79.29362752811227 L 82.91090909090909 84.9972663421836 L 84.03454545454545 90.93717310250574 L 85.15818181818182 96.28940829703961 L 86.28181818181818 99.17639616157115 L 87.40545454545455 102.5515237221316 L 88.52909090909091 106.3230305990833 L 89.65272727272728 110.41067258679334 L 90.77636363636364 114.74470978044712 L 91.9 119.26488306037459 L 93.02363636363637 123.77217969964411 L 94.14727272727274 126.1216214959612 L 95.2709090909091 128.81411197379572 L 96.39454545454547 131.79143784011308 L 97.5181818181818 135.00191583523338 L 98.64181818181817 138.39989339514642 L 99.76545454545453 141.94523761780363 L 100.8890909090909 145.60282961932958 L 102.01272727272726 147.72330135062202 L 103.13636363636363 149.9216285217206 L 104.25999999999999 152.3313133392441 L 105.38363636363636 154.917612539904 L 106.50727272727272 157.64943721997577 L 107.63090909090909 160.49907992830182 L 108.75454545454545 163.44194163630064 L 109.87818181818182 165.42526734405865 L 111.00181818181818 167.2542658530423 L 112.12545454545455 169.2443150151082 L 113.24909090909091 171.37121917515626 L 114.37272727272727 173.6130981596488 L 115.49636363636364 175.95023315658455 L 116.62 178.36491122440194 L 117.74363636363637 180.1947931538934 L 118.86727272727273 181.74045879847404 L 119.9909090909091 183.41160492756543 L 121.11454545454544 185.19087441889587 L 122.2381818181818 187.06243331792336 L 123.36181818181817 189.01187960276528 L 124.48545454545453 191.02615054161683 L 125.6090909090909 192.7040224267248 L 126.73272727272726 194.02754321517446 L 127.85636363636362 195.450699590712 L 128.98 196.96072232380337 L 130.10363636363635 198.5458766134407 L 131.22727272727272 200.1954058643547 L 132.35090909090908 201.89947431139376 L 133.47454545454545 203.43445111871793 L 134.5981818181818 204.58056020642542 L 135.72181818181818 205.80708302504024 L 136.84545454545454 207.10441961554844 L 137.9690909090909 208.46369207029701 L 139.09272727272727 209.8767086653604 L 140.21636363636364 211.3359271153766 L 141.34 212.73999283493936 L 142.46363636363637 213.7421565876454 L 143.58727272727273 214.8101464453002 L 144.7109090909091 215.9366078015818 L 145.83454545454543 217.11470221905617 L 146.95818181818183 218.33808384717764 L 148.0818181818182 219.60087519041863 L 149.20545454545456 220.886580897648 L 150.32909090909092 221.77033894470662 L 151.45272727272726 222.70865541834064 L 152.57636363636362 223.69580199298912 L 153.7 224.7264271308519 L 154.82363636363635 225.79554016189002 L 155.94727272727272 226.89849488672132 L 157.07090909090908 228.0309729417945 L 158.19454545454545 228.86307331455976 L 159.3181818181818 229.69397487746454 L 160.44181818181818 230.56606795960084 L 161.56545454545454 231.4751054180004 L 162.6890909090909 232.41710928189718 L 163.81272727272727 233.38835940072966 L 164.93636363636364 234.38538189623455 L 166.06 235.17478118988714 L 167.18363636363637 235.9157095872351 L 168.30727272727273 236.69170086125706 L 169.4309090909091 237.49934184981066 L 170.55454545454546 238.33542341608845 L 171.67818181818183 239.1969324275165 L 172.8018181818182 240.08104357807255 L 173.92545454545456 240.82768266829413 L 175.0490909090909 241.49249845566996 L 176.17272727272726 242.18740385930568 L 177.29636363636362 242.90962489996826 L 178.42 243.65654448771392 L 179.54363636363635 244.425696649656 L 180.66727272727272 245.21476063430424 L 181.79090909090908 245.9197708612371 L 182.91454545454545 246.51962734839015 L 184.0381818181818 247.14549619352576 L 185.16181818181818 247.79509988520343 L 186.28545454545454 248.46628313285328 L 187.4090909090909 249.15700864373343 L 188.53272727272727 249.86535280315496 L 189.65636363636364 250.53052926535779 L 190.78 251.0745025318388 L 191.90363636363637 251.6411142375648 L 193.02727272727273 252.22847717568916 L 194.1509090909091 252.83480048073693 L 195.27454545454546 253.45838649241745 L 196.39818181818183 254.09762754361194 L 197.5218181818182 254.72510355172744 L 198.64545454545453 255.22065440438018 L 199.7690909090909 255.73602801690788 L 200.89272727272726 256.26964741472636 L 202.01636363636362 256.8200123838844 L 203.14 257.38569711001304 L 204.26363636363635 257.9653477578138 L 205.38727272727272 258.5573940574922 L 206.51090909090908 259.01071198814486 L 207.63454545454545 259.4814845703323 L 208.7581818181818 259.96838390249115 L 209.88181818181818 260.4701438453265 L 211.00545454545454 260.9855582220582 L 212.1290909090909 261.5134789718403 L 213.25272727272727 262.0528142710326 L 214.37636363636364 262.48864404877304 L 215.5 262.92035563602747 L 216.62363636363636 263.3663898647098 L 217.74727272727273 263.8256707949995 L 218.8709090909091 264.29717124317204 L 219.99454545454546 264.7799113568708 L 221.11818181818182 265.27295716411777 L 222.2418181818182 265.69146938404344 L 223.36545454545453 266.0887803228755 L 224.4890909090909 266.49886848715494 L 225.61272727272726 266.9208137606374 L 226.73636363636362 267.3537359955677 L 227.85999999999999 267.7967939019821 L 228.98363636363635 268.24918391549625 L 230.10727272727271 268.6505773447187 L 231.23090909090908 269.0174359975202 L 232.35454545454544 269.39574051605615 L 233.4781818181818 269.7846994181392 L 234.60181818181817 270.18355423420735 L 235.72545454545454 270.5915786330812 L 236.8490909090909 271.00807753010764 L 237.97272727272727 271.3927583914233 L 239.09636363636363 271.7325319310921 L 240.22 272.08259830524867 L 241.34363636363636 272.44227297092255 L 242.46727272727273 272.8108988437634 L 243.5909090909091 273.1878456037285 L 244.71454545454546 273.5725089863617 L 245.83818181818182 273.9410163248291 L 246.96181818181816 274.2565937509527 L 248.08545454545452 274.58146048769635 L 249.2090909090909 274.9150214793074 L 250.33272727272725 275.2567046579754 L 251.45636363636362 275.60596038787486 L 252.57999999999998 275.9622608973363 L 253.70363636363635 276.3152142953168 L 254.8272727272727 276.6090883123312 L 255.95090909090908 276.9113742040255 L 257.07454545454544 277.221552256122 L 258.1981818181818 277.5391221165193 L 259.3218181818182 277.8636023466195 L 260.44545454545454 278.1945299629397 L 261.5690909090909 278.5314599712982 L 262.69272727272727 278.80692560372927 L 263.81636363636363 279.0888996152766 L 264.94 279.3780590731227 L 266.06363636363636 279.673964458201 L 267.1872727272727 279.9761922876706 L 268.3109090909091 280.28433474215785 L 269.43454545454546 280.597999286802 L 270.5581818181818 280.86486500816426 L 271.68181818181813 281.12850267765396 L 272.8054545454545 281.3987007419045 L 273.92909090909086 281.67507155323153 L 275.0527272727273 281.95724113190397 L 276.17636363636365 282.24484886104176 L 277.3 282.53754717626725 L 278.4236363636364 282.7958465207454 L 279.54727272727274 283.0428758099044 L 280.6709090909091 283.2959106796191 L 281.79454545454547 283.5546079290319 L 282.9181818181818 283.81863606410604 L 284.04181818181814 284.0876750463158 L 285.1654545454545 284.361416036885 L 286.2890909090909 284.61126260549065 L 287.41272727272724 284.8432014288755 L 288.5363636363636 285.080651690078 L 289.65999999999997 285.3233084489383 L 290.78363636363633 285.570876838836 L 291.9072727272727 285.82307185843564 L 293.03090909090906 286.0796181597086 L 294.1545454545454 286.32118273855883 L 295.2781818181818 286.5393698787789 L 296.40181818181816 286.76262693662824 L 297.5254545454545 286.990682050705 L 298.6490909090909 287.22327206555747 L 299.77272727272725 287.46014235815755 L 300.8963636363636 287.7010466612577 L 302.02 287.93453997058293 L 303.14363636363635 288.1401606985362 L 304.2672727272727 288.3504556420114 L 305.3909090909091 288.5651816556186 L 306.51454545454544 288.78410314897906 L 307.6381818181818 289.0069919414085 L 308.76181818181817 289.23362711390706 L 309.88545454545454 289.4592867952305 L 311.0090909090909 289.65339422244443 L 312.13272727272727 289.85182020300346 L 313.25636363636363 290.05434661688207 L 314.38 290.2607619258458 L 315.50363636363636 290.47086105111566 L 316.6272727272727 290.684445248764 L 317.7509090909091 290.90132198319895 L 318.87454545454545 291.0860590253832 L 319.9981818181818 291.27358999790454 L 321.1218181818182 291.46492274317137 L 322.24545454545455 291.6598667854168 L 323.3690909090909 291.8582373005068 L 324.4927272727273 292.0598550105153 L 325.61636363636364 292.26454607668603 L 326.74 292.444419584398 L 327.8636363636364 292.62192608066255 L 328.98727272727274 292.8029639059789 L 330.1109090909091 292.98736109203287 L 331.2345454545454 293.1749506324426 L 332.3581818181818 293.36557039317336 L 333.48181818181814 293.55906302160116 L 334.6054545454545 293.7341076475773 L 335.72909090909087 293.9023701151909 L 336.85272727272724 294.0739184416971 L 337.9763636363636 294.24859697396676 L 339.09999999999997 294.42625442955796 L 340.22363636363633 294.606743820328 L 341.3472727272727 294.7899223747865 L 342.47090909090906 294.96020011467016 L 343.5945454545454 295.1199202479588 L 344.7181818181818 295.2827029357651 L 345.84181818181816 295.44840695196274 L 346.9654545454545 295.61689493237077 L 348.0890909090909 295.7880333093032 L 349.21272727272725 295.9616922450761 L 350.3363636363636 296.1272856957403 L 351.46 296.27909610197395 L 352.58363636363634 296.43376548547957 L 353.7072727272727 296.59116541501544 L 354.8309090909091 296.75117088190837 L 355.95454545454544 296.91366024377083" stroke-linejoin="bevel" stroke-miterlimit="10" stroke-width="2"/></g><g><path fill="none" stroke="none"/><path fill="none" stroke="green" paint-order="fill stroke markers" d=" M 75.04545454545455 288.37558189111877 L 76.1690909090909 289.90990986036394 L 77.29272727272726 291.4517981000865 L 78.41636363636363 292.9927934855721 L 79.53999999999999 294.00109749258047 L 80.66363636363636 295.05325949614667 L 81.78727272727272 296.14050397720246 L 82.91090909090909 297.25383818591916 L 84.03454545454545 298.38569024070154 L 85.15818181818182 299.5296393772919 L 86.28181818181818 300.33659472073316 L 87.40545454545455 301.1286463281285 L 88.52909090909091 301.95296575095716 L 89.65272727272728 302.80331701364116 L 90.77636363636364 303.67418715311885 L 91.9 304.560678383258 L 93.02363636363637 305.2023581609708 L 94.14727272727274 305.8256651278868 L 95.2709090909091 306.4769462954494 L 96.39454545454547 307.1516719984383 L 97.5181818181818 307.8457199154226 L 98.64181818181817 308.5553307651384 L 99.76545454545453 309.0656318196474 L 100.8890909090909 309.572751023257 L 102.01272727272726 310.1035468614442 L 103.13636363636363 310.65462867133147 L 104.25999999999999 311.2228557178873 L 105.38363636363636 311.8053186971755 L 106.50727272727272 312.2124140702474 L 107.63090909090909 312.63558251605025 L 108.75454545454545 313.0786151598007 L 109.87818181818182 313.53891871122596 L 111.00181818181818 314.0140639282414 L 112.12545454545455 314.48665405135876 L 113.24909090909091 314.82798445435543 L 114.37272727272727 315.18809093692215 L 115.49636363636364 315.5648397475946 L 116.62 315.9562137348157 L 117.74363636363637 316.3603091460279 L 118.86727272727273 316.74240956434375 L 119.9909090909091 317.03798620682505 L 121.11454545454544 317.34921257283537 L 122.2381818181818 317.6744149095949 L 123.36181818181817 318.01200195876606 L 124.48545454545453 318.36046399870116 L 125.6090909090909 318.67160904253666 L 126.73272727272726 318.9308527904478 L 127.85636363636362 319.2032150647402 L 128.98 319.48736463204597 L 130.10363636363635 319.78203073140895 L 131.22727272727272 320.0860030282494 L 132.35090909090908 320.3410216816004 L 133.47454545454545 320.57076821978274 L 134.5981818181818 320.8115799418133 L 135.72181818181818 321.06238531633136 L 136.84545454545454 321.3221583764346 L 137.9690909090909 321.58991900885803 L 139.09272727272727 321.8001657073733 L 140.21636363636364 322.00552679102617 L 141.34 322.22028050555747 L 142.46363636363637 322.443555202228 L 143.58727272727273 322.67451431538575 L 144.7109090909091 322.910470966233 L 145.83454545454543 323.0866020932545 L 146.95818181818183 323.27149904630477 L 148.0818181818182 323.4644190492528 L 149.20545454545456 323.6646462895975 L 150.32909090909092 323.87149244266175 L 151.45272727272726 324.06937748989776 L 152.57636363636362 324.22937477299257 L 153.7 324.3968813572106 L 154.82363636363635 324.57128291357924 L 155.94727272727272 324.75198651407936 L 157.07090909090908 324.93842107935865 L 158.19454545454545 325.1052195066984 L 159.3181818181818 325.2513173291315 L 160.44181818181818 325.4038875280054 L 161.56545454545454 325.5624178602879 L 162.6890909090909 325.7264132929198 L 163.81272727272727 325.89539637101007 L 164.93636363636364 326.03662922168957 L 166.06 326.17064214752315 L 167.18363636363637 326.31026606139767 L 168.30727272727273 326.45507065176383 L 169.4309090909091 326.6046396008698 L 170.55454545454546 326.75857088168976 L 171.67818181818183 326.87863884462575 L 172.8018181818182 327.00206143822413 L 173.92545454545456 327.1303748531484 L 175.0490909090909 327.26321511951346 L 176.17272727272726 327.40022975519594 L 177.29636363636362 327.5340422362144 L 178.42 327.6435163796566 L 179.54363636363635 327.75759461516924 L 180.66727272727272 327.87595785910264 L 181.79090909090908 327.99829629790776 L 182.91454545454545 328.1243096278258 L 184.0381818181818 328.2396389160799 L 185.16181818181818 328.34137703324 L 186.28545454545454 328.44716055128526 L 187.4090909090909 328.5567164569686 L 188.53272727272727 328.6697794783699 L 189.65636363636364 328.7860922748539 L 190.78 328.8858279960208 L 191.90363636363637 328.9806380444999 L 193.02727272727273 329.0790191733786 L 194.1509090909091 329.1807364913949 L 195.27454545454546 329.28556161595594 L 196.39818181818183 329.39327282386785 L 197.5218181818182 329.4797848983675 L 198.64545454545453 329.56836214075304 L 199.7690909090909 329.6601055625158 L 200.89272727272726 329.7548120251965 L 202.01636363636362 329.8522838962519 L 203.14 329.947626389882 L 204.26363636363635 330.027573476371 L 205.38727272727272 330.1105204006013 L 206.51090909090908 330.1962860677248 L 207.63454545454545 330.28469394940544 L 208.7581818181818 330.37557220107385 L 209.88181818181818 330.45918917161913 L 211.00545454545454 330.5343539510136 L 212.1290909090909 330.6121958918694 L 213.25272727272727 330.69255698315857 L 214.37636363636364 330.775283124886 L 215.5 330.86022422201455 L 216.62363636363636 330.9337461339531 L 217.74727272727273 331.004545618411 L 218.8709090909091 331.0777431748774 L 219.99454545454546 331.1532003434495 L 221.11818181818182 331.230782029589 L 222.2418181818182 331.31035657968613 L 223.36545454545453 331.3751520467584 L 224.4890909090909 331.44195547211746 L 225.61272727272726 331.51091449679797 L 226.73636363636362 331.5819073042238 L 227.85999999999999 331.65481498629373 L 228.98363636363635 331.7256635725132 L 230.10727272727271 331.78674515789453 L 231.23090909090908 331.8498808338875 L 232.35454545454544 331.9149605550712 L 233.4781818181818 331.9818767407114 L 234.60181818181817 332.05052433395053 L 235.72545454545454 332.1135262475161 L 236.8490909090909 332.17143098635916 L 237.97272727272727 332.231191949602 L 239.09636363636363 332.29271163782346 L 240.22 332.35589470189836 L 241.34363636363636 332.4206479912402 L 242.46727272727273 332.47678399275895 L 243.5909090909091 332.53175026846714 L 244.71454545454546 332.58839898817337 L 245.83818181818182 332.6466434745787 L 246.96181818181816 332.7063989329747 L 248.08545454545452 332.76705650476725 L 249.2090909090909 332.81769139417986 L 250.33272727272725 332.869934461586 L 251.45636363636362 332.9237067870354 L 252.57999999999998 332.97893106615106 L 253.70363636363635 333.0355316482082 L 254.8272727272727 333.08998625429876 L 255.95090909090908 333.1382366559575 L 257.07454545454544 333.1879513947174 L 258.1981818181818 333.2390598894295 L 259.3218181818182 333.29149298464233 L 260.44545454545454 333.34518298202715 L 261.5690909090909 333.39415330998713 L 262.69272727272727 333.4401797789812 L 263.81636363636363 333.4875430543966 L 264.94 333.5361798296082 L 266.06363636363636 333.5860280597468 L 267.1872727272727 333.6370269877259 L 268.3109090909091 333.6811350282181 L 269.43454545454546 333.7250843490223 L 270.5581818181818 333.7702570467105 L 271.68181818181813 333.81659618272204 L 272.8054545454545 333.864045938216 L 273.92909090909086 333.9115054490143 L 275.0527272727273 333.95233754804894 L 276.17636363636365 333.9943441518417 L 277.3 334.0374729394296 L 278.4236363636364 334.08167256517623 L 279.54727272727274 334.1268926797193 L 280.6709090909091 334.16991008488003 L 281.79454545454547 334.20901836135687 L 282.9181818181818 334.24920557357433 L 284.04181818181814 334.2904244323611 L 285.1654545454545 334.332628519654 L 286.2890909090909 334.3757723060528 L 287.41272727272724 334.41481752681216 L 288.5363636363636 334.4523054047672 L 289.65999999999997 334.4907865463394 L 290.78363636363633 334.5302181080267 L 291.9072727272727 334.57055802615315 L 293.03090909090906 334.61176503162847 L 294.1545454545454 334.6472501818648 L 295.2781818181818 334.6832132839929 L 296.40181818181816 334.7200926459468 L 297.5254545454545 334.7578493632842 L 298.6490909090909 334.7964452312251 L 299.77272727272725 334.83448634270974 L 300.8963636363636 334.86813028523386 L 302.02 334.902657121383 L 303.14363636363635 334.93803082945215 L 304.2672727272727 334.97421600472774 L 305.3909090909091 335.0111778715659 L 306.51454545454544 335.04593628596206 L 307.6381818181818 335.0782918353257 L 308.76181818181817 335.1114644235167 L 309.88545454545454 335.1454212068566 L 311.0090909090909 335.1801298981652 L 312.13272727272727 335.21555877703383 L 313.25636363636363 335.2473538926756 L 314.38 335.2784908645568 L 315.50363636363636 335.3103852915726 L 316.6272727272727 335.34300716768087 L 317.7509090909091 335.3763269897534 L 318.87454545454545 335.4101786421238 L 319.9981818181818 335.4394308074973 L 321.1218181818182 335.46941431060105 L 322.24545454545455 335.50010123835995 L 323.3690909090909 335.5314641245382 L 324.4927272727273 335.5634759582215 L 325.61636363636364 335.5945860261866 L 326.74 335.62279690679907 L 327.8636363636364 335.65168770551827 L 328.98727272727274 335.6812328288945 L 330.1109090909091 335.7114070891734 L 331.2345454545454 335.7421857115523 L 332.3581818181818 335.7708052884756 L 333.48181818181814 335.7980270147557 L 334.6054545454545 335.8258818625127 L 335.72909090909087 335.85434632359943 L 336.85272727272724 335.8833972588229 L 337.9763636363636 335.9130119041666 L 339.09999999999997 335.9393652660422 L 340.22363636363633 335.9656467640207 L 341.3472727272727 335.99251870940634 L 342.47090909090906 336.0199594726977 L 343.5945454545454 336.04794776046424 L 344.7181818181818 336.0759349995081 L 345.84181818181816 336.1007505158038 L 346.9654545454545 336.12613772531495 L 348.0890909090909 336.1520763931138 L 349.21272727272725 336.1785465856244 L 350.3363636363636 336.2055286758617 L 351.46 336.2314041982717 L 352.58363636363634 336.25540583136 L 353.7072727272727 336.2799419100282 L 354.8309090909091 336.3049937591017 L 355.95454545454544 336.33054297899804" stroke-linejoin="bevel" stroke-miterlimit="10" stroke-width="2"/></g><g><path fill="none" stroke="none"/><path fill="none" stroke="blue" paint-order="fill stroke markers" d=" M 75.04545454545455 298.0539573387393 L 76.1690909090909 298.6743199014079 L 77.29272727272726 299.44077283036586 L 78.41636363636363 300.32774753273094 L 79.53999999999999 301.31172015320965 L 80.66363636363636 302.3714219202361 L 81.78727272727272 303.23203477635127 L 82.91090909090909 303.780575362628 L 84.03454545454545 304.4278905157281 L 85.15818181818182 305.15768592686953 L 86.28181818181818 305.9549276368016 L 87.40545454545455 306.8059302679356 L 88.52909090909091 307.3792751541405 L 89.65272727272728 307.86120421208767 L 90.77636363636364 308.4126940275075 L 91.9 309.02290778948395 L 93.02363636363637 309.6818111293351 L 94.14727272727274 310.38021227491527 L 95.2709090909091 310.7695940538666 L 96.39454545454547 311.19310530742183 L 97.5181818181818 311.6672749135832 L 98.64181818181817 312.1846322406921 L 99.76545454545453 312.73823402331806 L 100.8890909090909 313.25955998100886 L 102.01272727272726 313.5893394960849 L 103.13636363636363 313.9627049960654 L 104.25999999999999 314.37401039498815 L 105.38363636363636 314.81794653199324 L 106.50727272727272 315.2895610696053 L 107.63090909090909 315.67177236039964 L 108.75454545454545 315.96919783254214 L 109.87818181818182 316.29982768475895 L 111.00181818181818 316.6595525199006 L 112.12545454545455 317.0444998034293 L 113.24909090909091 317.4510448264752 L 114.37272727272727 317.7348704558508 L 115.49636363636364 318.0032760997995 L 116.62 318.2975085215817 L 117.74363636363637 318.6145090035755 L 118.86727272727273 318.95138873145606 L 119.9909090909091 319.2984159959896 L 121.11454545454544 319.5182240208892 L 122.2381818181818 319.7609245212507 L 123.36181818181817 320.02407774677357 L 124.48545454545453 320.30536198873006 L 125.6090909090909 320.60257970163207 L 126.73272727272726 320.87252683576656 L 127.85636363636362 321.0742445209595 L 128.98 321.29429651206175 L 130.10363636363635 321.5308013590198 L 131.22727272727272 321.7819661286466 L 132.35090909090908 322.04609018443267 L 133.47454545454545 322.25796368501625 L 134.5981818181818 322.4431965968604 L 135.72181818181818 322.64332160942973 L 136.84545454545454 322.8568655351555 L 137.9690909090909 323.08242247398 L 139.09272727272727 323.3186562090986 L 140.21636363636364 323.48614987965493 L 141.34 323.65648106216014 L 142.46363636363637 323.8390603805906 L 143.58727272727273 324.03271850130193 L 144.7109090909091 324.23633789744355 L 145.83454545454543 324.43625835427605 L 146.95818181818183 324.5820068223986 L 148.0818181818182 324.7389200449338 L 149.20545454545456 324.9060196105842 L 150.32909090909092 325.0823659434062 L 151.45272727272726 325.2670598316268 L 152.57636363636362 325.4300294208181 L 153.7 325.5655279087239 L 154.82363636363635 325.7103770875041 L 155.94727272727272 325.8637828547202 L 157.07090909090908 326.02498186652554 L 158.19454545454545 326.1932425761643 L 159.3181818181818 326.3268243573009 L 160.44181818181818 326.45292309721367 L 161.56545454545454 326.5869253428542 L 162.6890909090909 326.72818010191935 L 163.81272727272727 326.87606096971075 L 164.93636363636364 327.0297477888014 L 166.06 327.13995843001766 L 167.18363636363637 327.2574627683932 L 168.30727272727273 327.3817031109764 L 169.4309090909091 327.5121408956162 L 170.55454545454546 327.64825738655225 L 171.67818181818183 327.7770434991628 L 172.8018181818182 327.8804510375347 L 173.92545454545456 327.99010797527603 L 175.0490909090909 328.1055494086187 L 176.17272727272726 328.22632605500127 L 177.29636363636362 328.3520047501633 L 178.42 328.46039178788124 L 179.54363636363635 328.55749318570327 L 180.66727272727272 328.6599868908055 L 181.79090909090908 328.7674823734042 L 182.91454545454545 328.8796019483349 L 184.0381818181818 328.9959811349112 L 185.16181818181818 329.08753731112967 L 186.28545454545454 329.178806808341 L 187.4090909090909 329.274759081845 L 188.53272727272727 329.3750637548379 L 189.65636363636364 329.4794010822496 L 190.78 329.58353901205055 L 191.90363636363637 329.66504099280104 L 193.02727272727273 329.7509236190828 L 194.1509090909091 329.8408969742905 L 195.27454545454546 329.9346797399249 L 196.39818181818183 330.0319994530182 L 197.5218181818182 330.1214269903501 L 198.64545454545453 330.19849458503427 L 199.7690909090909 330.2794034919887 L 200.89272727272726 330.3639054862095 L 202.01636363636362 330.45175956953517 L 203.14 330.54273216387276 L 204.26363636363635 330.6197604920828 L 205.38727272727272 330.69269088382634 L 206.51090909090908 330.769006960426 L 207.63454545454545 330.84849499539683 L 208.7581818181818 330.9309473682122 L 209.88181818181818 331.016162710709 L 211.00545454545454 331.0826852780823 L 212.1290909090909 331.1517597686934 L 213.25272727272727 331.2238325831176 L 214.37636363636364 331.29871873210675 L 215.5 331.3762384110227 L 216.62363636363636 331.45114512917246 L 217.74727272727273 331.51379528109464 L 218.8709090909091 331.57927770052225 L 219.99454545454546 331.64742717235833 L 221.11818181818182 331.7180827949263 L 222.2418181818182 331.7910880897532 L 223.36545454545453 331.85661044366094 L 224.4890909090909 331.91622020578416 L 225.61272727272726 331.978356452623 L 226.73636363636362 332.04287488554303 L 227.85999999999999 332.1096349111433 L 228.98363636363635 332.1784997267262 L 230.10727272727271 332.2359414388167 L 231.23090909090908 332.2926971901954 L 232.35454545454544 332.35171547642835 L 233.4781818181818 332.4128697243315 L 234.60181818181817 332.47603655635146 L 235.72545454545454 332.53962165376475 L 236.8490909090909 332.59155182711555 L 237.97272727272727 332.6456297617128 L 239.09636363636363 332.7017412813987 L 240.22 332.75977491136985 L 241.34363636363636 332.81962194359863 L 242.46727272727273 332.8759400922206 L 243.5909090909091 332.9255708529442 L 244.71454545454546 332.9771366044747 L 245.83818181818182 333.0305364425974 L 246.96181818181816 333.08567181537904 L 248.08545454545452 333.1424465752302 L 249.2090909090909 333.1924237935276 L 250.33272727272725 333.23988345169136 L 251.45636363636362 333.2890921094719 L 252.57999999999998 333.3399602711107 L 253.70363636363635 333.39240049596907 L 254.8272727272727 333.44632744022397 L 255.95090909090908 333.4907532628154 L 257.07454545454544 333.5361638845437 L 258.1981818181818 333.5831602601796 L 259.3218181818182 333.631662742686 L 260.44545454545454 333.68159348629575 L 261.5690909090909 333.73046435971236 L 262.69272727272727 333.7724269066945 L 263.81636363636363 333.81590403512956 L 264.94 333.8608230840719 L 266.06363636363636 333.90711294331624 L 267.1872727272727 333.95470408627926 L 268.3109090909091 333.9985118947227 L 269.43454545454546 334.03878471541606 L 270.5581818181818 334.08043731783624 L 271.68181818181813 334.1234046503528 L 272.8054545454545 334.16762303095857 L 273.92909090909086 334.2130301740719 L 275.0527272727273 334.2523581051664 L 276.17636363636365 334.29102839486234 L 277.3 334.33095896211427 L 278.4236363636364 334.372091399201 L 279.54727272727274 334.41436851131454 L 280.6709090909091 334.457144651052 L 281.79454545454547 334.49308778420146 L 282.9181818181818 334.5302385447536 L 284.04181818181814 334.5685432905725 L 285.1654545454545 334.6079494350147 L 286.2890909090909 334.6484054683904 L 287.41272727272724 334.687076982026 L 288.5363636363636 334.72167939580345 L 289.65999999999997 334.75738936951655 L 290.78363636363633 334.7941584926453 L 291.9072727272727 334.83193929554056 L 293.03090909090906 334.87068526720645 L 294.1545454545454 334.9056920058615 L 295.2781818181818 334.93901762174704 L 296.40181818181816 334.9733613202175 L 297.5254545454545 335.00867930321084 L 298.6490909090909 335.0449286133128 L 299.77272727272725 335.0820671485152 L 300.8963636363636 335.11379424647515 L 302.02 335.1459041970481 L 303.14363636363635 335.17895199518466 L 304.2672727272727 335.21289792157705 L 305.3909090909091 335.2477030096786 L 306.51454545454544 335.282064632034 L 307.6381818181818 335.3121147283882 L 308.76181818181817 335.34306729617407 L 309.88545454545454 335.37488556971834 L 311.0090909090909 335.4075334468142 L 312.13272727272727 335.4409755007894 L 313.25636363636363 335.4723026107394 L 314.38 335.50131907106686 L 315.50363636363636 335.53116968814606 L 316.6272727272727 335.5618209788904 L 317.7509090909091 335.59324005756065 L 318.87454545454545 335.62539464590964 L 319.9981818181818 335.65398572414654 L 321.1218181818182 335.68201455165996 L 322.24545454545455 335.7108158425077 L 323.3690909090909 335.74035903978216 L 324.4927272727273 335.77061412542355 L 325.61636363636364 335.80133084855146 L 326.74 335.82767104716066 L 327.8636363636364 335.8547562839623 L 328.98727272727274 335.8825581384223 L 330.1109090909091 335.9110486686089 L 331.2345454545454 335.9402004195888 L 332.3581818181818 335.9683771914455 L 333.48181818181814 335.99386892262066 L 334.6054545454545 336.0200526381445 L 335.72909090909087 336.0469023047519 L 336.85272727272724 336.0743923229854 L 337.9763636363636 336.10249753431873 L 339.09999999999997 336.128369163125 L 340.22363636363633 336.1530476978434 L 341.3472727272727 336.1783700064622 L 342.47090909090906 336.2043121988594 L 343.5945454545454 336.2308507787567 L 344.7181818181818 336.25796264982455 L 345.84181818181816 336.2817386779231 L 346.9654545454545 336.3056379043505 L 348.0890909090909 336.3301370040454 L 349.21272727272725 336.35521401508043 L 350.3363636363636 336.38084733369357 L 351.46 336.4063114989758 L 352.58363636363634 336.4288835459123 L 353.7072727272727 336.452035954593 L 354.8309090909091 336.4757481804376 L 355.95454545454544 336.5" stroke-linejoin="bevel" stroke-miterlimit="10" stroke-width="2"/></g></g></g><g clip-path="url(#sXLeivdscVss)"><g><g/><g><path fill="#ffffff" stroke="#e5e5e5" paint-order="fill stroke markers" d=" M 158.046875 42 L 360 42 L 360 128 L 158.046875 128 L 158.046875 42 Z" fill-opacity="0.95" stroke-linejoin="bevel" stroke-miterlimit="10" stroke-opacity="0.5"/><text fill="#444444" stroke="none" font-family="helvetica" font-size="10pt" font-style="normal" font-weight="normal" text-decoration="normal" x="193.046875" y="62" text-anchor="start" dominant-baseline="central">Euler method</text><g><path fill="none" stroke="red" paint-order="fill stroke markers" d=" M 168.046875 62 L 188.046875 62" stroke-linejoin="bevel" stroke-miterlimit="10" stroke-width="2"/></g><text fill="#444444" stroke="none" font-family="helvetica" font-size="10pt" font-style="normal" font-weight="normal" text-decoration="normal" x="193.046875" y="85" text-anchor="start" dominant-baseline="central">Improved Euler method</text><g><path fill="none" stroke="green" paint-order="fill stroke markers" d=" M 168.046875 85 L 188.046875 85" stroke-linejoin="bevel" stroke-miterlimit="10" stroke-width="2"/></g><text fill="#444444" stroke="none" font-family="helvetica" font-size="10pt" font-style="normal" font-weight="normal" text-decoration="normal" x="193.046875" y="108" text-anchor="start" dominant-baseline="central">Runge-Kutta method</text><g><path fill="none" stroke="blue" paint-order="fill stroke markers" d=" M 168.046875 108 L 188.046875 108" stroke-linejoin="bevel" stroke-miterlimit="10" stroke-width="2"/></g></g></g></g><g><g fill="#444444"><path fill="none" stroke="black" paint-order="fill stroke markers" d=" M 61 351 L 370 351" stroke-linejoin="bevel" stroke-miterlimit="10"/><path fill="none" stroke="black" paint-order="fill stroke markers" d=" M 75 357 L 75 349" stroke-linejoin="bevel" stroke-miterlimit="10"/><path fill="none" stroke="black" paint-order="fill stroke markers" d=" M 131 357 L 131 349" stroke-linejoin="bevel" stroke-miterlimit="10"/><path fill="none" stroke="black" paint-order="fill stroke markers" d=" M 187 357 L 187 349" stroke-linejoin="bevel" stroke-miterlimit="10"/><path fill="none" stroke="black" paint-order="fill stroke markers" d=" M 244 357 L 244 349" stroke-linejoin="bevel" stroke-miterlimit="10"/><path fill="none" stroke="black" paint-order="fill stroke markers" d=" M 300 357 L 300 349" stroke-linejoin="bevel" stroke-miterlimit="10"/><path fill="none" stroke="black" paint-order="fill stroke markers" d=" M 356 357 L 356 349" stroke-linejoin="bevel" stroke-miterlimit="10"/><path fill="none" stroke="black" paint-order="fill stroke markers" d=" M 64 355 L 64 351" stroke-linejoin="bevel" stroke-miterlimit="10"/><path fill="none" stroke="black" paint-order="fill stroke markers" d=" M 75 355 L 75 351" stroke-linejoin="bevel" stroke-miterlimit="10"/><path fill="none" stroke="black" paint-order="fill stroke markers" d=" M 86 355 L 86 351" stroke-linejoin="bevel" stroke-miterlimit="10"/><path fill="none" stroke="black" paint-order="fill stroke markers" d=" M 98 355 L 98 351" stroke-linejoin="bevel" stroke-miterlimit="10"/><path fill="none" stroke="black" paint-order="fill stroke markers" d=" M 109 355 L 109 351" stroke-linejoin="bevel" stroke-miterlimit="10"/><path fill="none" stroke="black" paint-order="fill stroke markers" d=" M 120 355 L 120 351" stroke-linejoin="bevel" stroke-miterlimit="10"/><path fill="none" stroke="black" paint-order="fill stroke markers" d=" M 131 355 L 131 351" stroke-linejoin="bevel" stroke-miterlimit="10"/><path fill="none" stroke="black" paint-order="fill stroke markers" d=" M 142 355 L 142 351" stroke-linejoin="bevel" stroke-miterlimit="10"/><path fill="none" stroke="black" paint-order="fill stroke markers" d=" M 154 355 L 154 351" stroke-linejoin="bevel" stroke-miterlimit="10"/><path fill="none" stroke="black" paint-order="fill stroke markers" d=" M 165 355 L 165 351" stroke-linejoin="bevel" stroke-miterlimit="10"/><path fill="none" stroke="black" paint-order="fill stroke markers" d=" M 176 355 L 176 351" stroke-linejoin="bevel" stroke-miterlimit="10"/><path fill="none" stroke="black" paint-order="fill stroke markers" d=" M 187 355 L 187 351" stroke-linejoin="bevel" stroke-miterlimit="10"/><path fill="none" stroke="black" paint-order="fill stroke markers" d=" M 199 355 L 199 351" stroke-linejoin="bevel" stroke-miterlimit="10"/><path fill="none" stroke="black" paint-order="fill stroke markers" d=" M 210 355 L 210 351" stroke-linejoin="bevel" stroke-miterlimit="10"/><path fill="none" stroke="black" paint-order="fill stroke markers" d=" M 221 355 L 221 351" stroke-linejoin="bevel" stroke-miterlimit="10"/><path fill="none" stroke="black" paint-order="fill stroke markers" d=" M 232 355 L 232 351" stroke-linejoin="bevel" stroke-miterlimit="10"/><path fill="none" stroke="black" paint-order="fill stroke markers" d=" M 244 355 L 244 351" stroke-linejoin="bevel" stroke-miterlimit="10"/><path fill="none" stroke="black" paint-order="fill stroke markers" d=" M 255 355 L 255 351" stroke-linejoin="bevel" stroke-miterlimit="10"/><path fill="none" stroke="black" paint-order="fill stroke markers" d=" M 266 355 L 266 351" stroke-linejoin="bevel" stroke-miterlimit="10"/><path fill="none" stroke="black" paint-order="fill stroke markers" d=" M 277 355 L 277 351" stroke-linejoin="bevel" stroke-miterlimit="10"/><path fill="none" stroke="black" paint-order="fill stroke markers" d=" M 289 355 L 289 351" stroke-linejoin="bevel" stroke-miterlimit="10"/><path fill="none" stroke="black" paint-order="fill stroke markers" d=" M 300 355 L 300 351" stroke-linejoin="bevel" stroke-miterlimit="10"/><path fill="none" stroke="black" paint-order="fill stroke markers" d=" M 311 355 L 311 351" stroke-linejoin="bevel" stroke-miterlimit="10"/><path fill="none" stroke="black" paint-order="fill stroke markers" d=" M 322 355 L 322 351" stroke-linejoin="bevel" stroke-miterlimit="10"/><path fill="none" stroke="black" paint-order="fill stroke markers" d=" M 333 355 L 333 351" stroke-linejoin="bevel" stroke-miterlimit="10"/><path fill="none" stroke="black" paint-order="fill stroke markers" d=" M 345 355 L 345 351" stroke-linejoin="bevel" stroke-miterlimit="10"/><path fill="none" stroke="black" paint-order="fill stroke markers" d=" M 356 355 L 356 351" stroke-linejoin="bevel" stroke-miterlimit="10"/><path fill="" stroke="black" paint-order="fill stroke markers" d=" M 367 355 L 367 351" stroke-linejoin="bevel" stroke-miterlimit="10"/><g transform="translate(75,362) rotate(0,0,0)"><text fill="" stroke="none" font-family="helvetica" font-size="8pt" font-style="normal" font-weight="normal" text-decoration="normal" x="0" y="0" text-anchor="middle" dominant-baseline="hanging">50</text><g transform="rotate(0,0,0) translate(-75,-362) translate(131,362) rotate(0,0,0)"><text fill="" stroke="none" font-family="helvetica" font-size="8pt" font-style="normal" font-weight="normal" text-decoration="normal" x="0" y="0" text-anchor="middle" dominant-baseline="hanging">100</text><g transform="rotate(0,0,0) translate(-131,-362) translate(187,362) rotate(0,0,0)"><text fill="" stroke="none" font-family="helvetica" font-size="8pt" font-style="normal" font-weight="normal" text-decoration="normal" x="0" y="0" text-anchor="middle" dominant-baseline="hanging">150</text><g transform="rotate(0,0,0) translate(-187,-362) translate(244,362) rotate(0,0,0)"><text fill="" stroke="none" font-family="helvetica" font-size="8pt" font-style="normal" font-weight="normal" text-decoration="normal" x="0" y="0" text-anchor="middle" dominant-baseline="hanging">200</text><g transform="rotate(0,0,0) translate(-244,-362) translate(300,362) rotate(0,0,0)"><text fill="" stroke="none" font-family="helvetica" font-size="8pt" font-style="normal" font-weight="normal" text-decoration="normal" x="0" y="0" text-anchor="middle" dominant-baseline="hanging">250</text><g transform="rotate(0,0,0) translate(-300,-362) translate(356,362) rotate(0,0,0)"><text fill="" stroke="none" font-family="helvetica" font-size="8pt" font-style="normal" font-weight="normal" text-decoration="normal" x="0" y="0" text-anchor="middle" dominant-baseline="hanging">300</text><g transform="rotate(0,0,0) translate(-356,-362) translate(216,382) rotate(0,0,0)"><text fill="" stroke="none" font-family="helvetica" font-size="10pt" font-style="italic" font-weight="normal" text-decoration="normal" x="0" y="0" text-anchor="middle" dominant-baseline="hanging">Number of steps</text><g transform="rotate(0,0,0) translate(-216,-382)"/></g></g></g></g></g></g></g></g><g fill="#444444"><path fill="none" stroke="black" paint-order="fill stroke markers" d=" M 61 351 L 61 32" stroke-linejoin="bevel" stroke-miterlimit="10"/><path fill="none" stroke="black" paint-order="fill stroke markers" d=" M 55 343 L 63 343" stroke-linejoin="bevel" stroke-miterlimit="10"/><path fill="none" stroke="black" paint-order="fill stroke markers" d=" M 55 303 L 63 303" stroke-linejoin="bevel" stroke-miterlimit="10"/><path fill="none" stroke="black" paint-order="fill stroke markers" d=" M 55 263 L 63 263" stroke-linejoin="bevel" stroke-miterlimit="10"/><path fill="none" stroke="black" paint-order="fill stroke markers" d=" M 55 222 L 63 222" stroke-linejoin="bevel" stroke-miterlimit="10"/><path fill="none" stroke="black" paint-order="fill stroke markers" d=" M 55 182 L 63 182" stroke-linejoin="bevel" stroke-miterlimit="10"/><path fill="none" stroke="black" paint-order="fill stroke markers" d=" M 55 142 L 63 142" stroke-linejoin="bevel" stroke-miterlimit="10"/><path fill="none" stroke="black" paint-order="fill stroke markers" d=" M 55 101 L 63 101" stroke-linejoin="bevel" stroke-miterlimit="10"/><path fill="none" stroke="black" paint-order="fill stroke markers" d=" M 55 61 L 63 61" stroke-linejoin="bevel" stroke-miterlimit="10"/><path fill="none" stroke="black" paint-order="fill stroke markers" d=" M 57 343 L 61 343" stroke-linejoin="bevel" stroke-miterlimit="10"/><path fill="none" stroke="black" paint-order="fill stroke markers" d=" M 57 335 L 61 335" stroke-linejoin="bevel" stroke-miterlimit="10"/><path fill="none" stroke="black" paint-order="fill stroke markers" d=" M 57 327 L 61 327" stroke-linejoin="bevel" stroke-miterlimit="10"/><path fill="none" stroke="black" paint-order="fill stroke markers" d=" M 57 319 L 61 319" stroke-linejoin="bevel" stroke-miterlimit="10"/><path fill="none" stroke="black" paint-order="fill stroke markers" d=" M 57 311 L 61 311" stroke-linejoin="bevel" stroke-miterlimit="10"/><path fill="none" stroke="black" paint-order="fill stroke markers" d=" M 57 303 L 61 303" stroke-linejoin="bevel" stroke-miterlimit="10"/><path fill="none" stroke="black" paint-order="fill stroke markers" d=" M 57 295 L 61 295" stroke-linejoin="bevel" stroke-miterlimit="10"/><path fill="none" stroke="black" paint-order="fill stroke markers" d=" M 57 287 L 61 287" stroke-linejoin="bevel" stroke-miterlimit="10"/><path fill="none" stroke="black" paint-order="fill stroke markers" d=" M 57 279 L 61 279" stroke-linejoin="bevel" stroke-miterlimit="10"/><path fill="none" stroke="black" paint-order="fill stroke markers" d=" M 57 271 L 61 271" stroke-linejoin="bevel" stroke-miterlimit="10"/><path fill="none" stroke="black" paint-order="fill stroke markers" d=" M 57 263 L 61 263" stroke-linejoin="bevel" stroke-miterlimit="10"/><path fill="none" stroke="black" paint-order="fill stroke markers" d=" M 57 255 L 61 255" stroke-linejoin="bevel" stroke-miterlimit="10"/><path fill="none" stroke="black" paint-order="fill stroke markers" d=" M 57 247 L 61 247" stroke-linejoin="bevel" stroke-miterlimit="10"/><path fill="none" stroke="black" paint-order="fill stroke markers" d=" M 57 238 L 61 238" stroke-linejoin="bevel" stroke-miterlimit="10"/><path fill="none" stroke="black" paint-order="fill stroke markers" d=" M 57 230 L 61 230" stroke-linejoin="bevel" stroke-miterlimit="10"/><path fill="none" stroke="black" paint-order="fill stroke markers" d=" M 57 222 L 61 222" stroke-linejoin="bevel" stroke-miterlimit="10"/><path fill="none" stroke="black" paint-order="fill stroke markers" d=" M 57 214 L 61 214" stroke-linejoin="bevel" stroke-miterlimit="10"/><path fill="none" stroke="black" paint-order="fill stroke markers" d=" M 57 206 L 61 206" stroke-linejoin="bevel" stroke-miterlimit="10"/><path fill="none" stroke="black" paint-order="fill stroke markers" d=" M 57 198 L 61 198" stroke-linejoin="bevel" stroke-miterlimit="10"/><path fill="none" stroke="black" paint-order="fill stroke markers" d=" M 57 190 L 61 190" stroke-linejoin="bevel" stroke-miterlimit="10"/><path fill="none" stroke="black" paint-order="fill stroke markers" d=" M 57 182 L 61 182" stroke-linejoin="bevel" stroke-miterlimit="10"/><path fill="none" stroke="black" paint-order="fill stroke markers" d=" M 57 174 L 61 174" stroke-linejoin="bevel" stroke-miterlimit="10"/><path fill="none" stroke="black" paint-order="fill stroke markers" d=" M 57 166 L 61 166" stroke-linejoin="bevel" stroke-miterlimit="10"/><path fill="none" stroke="black" paint-order="fill stroke markers" d=" M 57 158 L 61 158" stroke-linejoin="bevel" stroke-miterlimit="10"/><path fill="none" stroke="black" paint-order="fill stroke markers" d=" M 57 150 L 61 150" stroke-linejoin="bevel" stroke-miterlimit="10"/><path fill="none" stroke="black" paint-order="fill stroke markers" d=" M 57 142 L 61 142" stroke-linejoin="bevel" stroke-miterlimit="10"/><path fill="none" stroke="black" paint-order="fill stroke markers" d=" M 57 134 L 61 134" stroke-linejoin="bevel" stroke-miterlimit="10"/><path fill="none" stroke="black" paint-order="fill stroke markers" d=" M 57 125 L 61 125" stroke-linejoin="bevel" stroke-miterlimit="10"/><path fill="none" stroke="black" paint-order="fill stroke markers" d=" M 57 117 L 61 117" stroke-linejoin="bevel" stroke-miterlimit="10"/><path fill="none" stroke="black" paint-order="fill stroke markers" d=" M 57 109 L 61 109" stroke-linejoin="bevel" stroke-miterlimit="10"/><path fill="none" stroke="black" paint-order="fill stroke markers" d=" M 57 101 L 61 101" stroke-linejoin="bevel" stroke-miterlimit="10"/><path fill="none" stroke="black" paint-order="fill stroke markers" d=" M 57 93 L 61 93" stroke-linejoin="bevel" stroke-miterlimit="10"/><path fill="none" stroke="black" paint-order="fill stroke markers" d=" M 57 85 L 61 85" stroke-linejoin="bevel" stroke-miterlimit="10"/><path fill="none" stroke="black" paint-order="fill stroke markers" d=" M 57 77 L 61 77" stroke-linejoin="bevel" stroke-miterlimit="10"/><path fill="none" stroke="black" paint-order="fill stroke markers" d=" M 57 69 L 61 69" stroke-linejoin="bevel" stroke-miterlimit="10"/><path fill="none" stroke="black" paint-order="fill stroke markers" d=" M 57 61 L 61 61" stroke-linejoin="bevel" stroke-miterlimit="10"/><path fill="none" stroke="black" paint-order="fill stroke markers" d=" M 57 53 L 61 53" stroke-linejoin="bevel" stroke-miterlimit="10"/><path fill="none" stroke="black" paint-order="fill stroke markers" d=" M 57 45 L 61 45" stroke-linejoin="bevel" stroke-miterlimit="10"/><path fill="" stroke="black" paint-order="fill stroke markers" d=" M 57 37 L 61 37" stroke-linejoin="bevel" stroke-miterlimit="10"/><g transform="translate(50,343) rotate(0,0,0)"><text fill="" stroke="none" font-family="helvetica" font-size="8pt" font-style="normal" font-weight="normal" text-decoration="normal" x="0" y="0" text-anchor="end" dominant-baseline="central">0</text><g transform="rotate(0,0,0) translate(-50,-343) translate(50,303) rotate(0,0,0)"><text fill="" stroke="none" font-family="helvetica" font-size="8pt" font-style="normal" font-weight="normal" text-decoration="normal" x="0" y="0" text-anchor="end" dominant-baseline="central">0.02</text><g transform="rotate(0,0,0) translate(-50,-303) translate(50,263) rotate(0,0,0)"><text fill="" stroke="none" font-family="helvetica" font-size="8pt" font-style="normal" font-weight="normal" text-decoration="normal" x="0" y="0" text-anchor="end" dominant-baseline="central">0.04</text><g transform="rotate(0,0,0) translate(-50,-263) translate(50,222) rotate(0,0,0)"><text fill="" stroke="none" font-family="helvetica" font-size="8pt" font-style="normal" font-weight="normal" text-decoration="normal" x="0" y="0" text-anchor="end" dominant-baseline="central">0.06</text><g transform="rotate(0,0,0) translate(-50,-222) translate(50,182) rotate(0,0,0)"><text fill="" stroke="none" font-family="helvetica" font-size="8pt" font-style="normal" font-weight="normal" text-decoration="normal" x="0" y="0" text-anchor="end" dominant-baseline="central">0.08</text><g transform="rotate(0,0,0) translate(-50,-182) translate(50,142) rotate(0,0,0)"><text fill="" stroke="none" font-family="helvetica" font-size="8pt" font-style="normal" font-weight="normal" text-decoration="normal" x="0" y="0" text-anchor="end" dominant-baseline="central">0.1</text><g transform="rotate(0,0,0) translate(-50,-142) translate(50,101) rotate(0,0,0)"><text fill="" stroke="none" font-family="helvetica" font-size="8pt" font-style="normal" font-weight="normal" text-decoration="normal" x="0" y="0" text-anchor="end" dominant-baseline="central">0.12</text><g transform="rotate(0,0,0) translate(-50,-101) translate(50,61) rotate(0,0,0)"><text fill="" stroke="none" font-family="helvetica" font-size="8pt" font-style="normal" font-weight="normal" text-decoration="normal" x="0" y="0" text-anchor="end" dominant-baseline="central">0.14</text><g transform="rotate(0,0,0) translate(-50,-61) translate(18,192) rotate(-90,0,0)"><text fill="" stroke="none" font-family="helvetica" font-size="10pt" font-style="italic" font-weight="normal" text-decoration="normal" x="0" y="0" text-anchor="middle" dominant-baseline="alphabetic">Global Error</text><g transform="rotate(90,0,0) translate(-18,-192)"/></g></g></g></g></g></g></g></g></g></g><g fill="#444444"><path fill="" stroke="none" d=""/><g transform="translate(61,27)"><path fill="none" stroke="none"/><text fill="" stroke="none" font-family="helvetica" font-size="10pt" font-style="normal" font-weight="bold" text-decoration="normal" x="0" y="0" text-anchor="start" dominant-baseline="text-after-edge">Error change</text></g></g></g></g></g></svg>