<svg version="1.1" xmlns="http://www.w3.org/2000/svg" xmlns:xlink="http://www.w3.org/1999/xlink" width="400" height="400" style="width: 400px; height: 400px;"><defs><clipPath id="PNXbdBnPTcuK"><path fill="none" stroke="none" d=" M 53 32 L 370 32 L 370 351 L 53 351 L 53 32 Z"/></clipPath><clipPath id="cTSRGFnnhBQk"><path fill="none" stroke="none" d=" M 53 32 L 370 32 L 370 351 L 53 351 L 53 32 Z"/></clipPath></defs><g><g transform="scale(1,1) translate(0.5,0.5)"><rect fill="#FFFFFF" stroke="none" x="0" y="0" width="400" height="400"/><rect fill="#ffffff" stroke="none" x="0" y="0" width="400" height="400"/><rect fill="#FFFFFF" stroke="none" x="53" y="32" width="317" height="319"/><rect fill="#ffffff" stroke="none" x="53" y="32" width="317" height="319"/><g><rect fill="none" stroke="#e5e5e5" x="53" y="32" width="317" height="319" stroke-linejoin="bevel" stroke-miterlimit="10"/></g><g clip-path="url(#PNXbdBnPTcuK)"><g><g><path fill="none" stroke="#e5e5e5" paint-order="fill stroke markers" d=" M 67 351 L 67 32" stroke-linejoin="bevel" stroke-miterlimit="10"/><path fill="none" stroke="#e5e5e5" paint-order="fill stroke markers" d=" M 112 351 L 112 32" stroke-linejoin="bevel" stroke-miterlimit="10"/><path fill="none" stroke="#e5e5e5" paint-order="fill stroke markers" d=" M 157 351 L 157 32" stroke-linejoin="bevel" stroke-miterlimit="10"/><path fill="none" stroke="#e5e5e5" paint-order="fill stroke markers" d=" M 202 351 L 202 32" stroke-linejoin="bevel" stroke-miterlimit="10"/><path fill="none" stroke="#e5e5e5" paint-order="fill stroke markers" d=" M 248 351 L 248 32" stroke-linejoin="bevel" stroke-miterlimit="10"/><path fill="none" stroke="#e5e5e5" paint-order="fill stroke markers" d=" M 293 351 L 293 32" stroke-linejoin="bevel" stroke-miterlimit="10"/><path fill="none" stroke="#e5e5e5" paint-order="fill stroke markers" d=" M 338 351 L 338 32" stroke-linejoin="bevel" stroke-miterlimit="10"/></g><g><path fill="none" stroke="#e5e5e5" paint-order="fill stroke markers" d=" M 53 336 L 370 336" stroke-linejoin="bevel" stroke-miterlimit="10"/><path fill="none" stroke="#e5e5e5" paint-order="fill stroke markers" d=" M 53 264 L 370 264" stroke-linejoin="bevel" stroke-miterlimit="10"/><path fill="none" stroke="#e5e5e5" paint-order="fill stroke markers" d=" M 53 191 L 370 191" stroke-linejoin="bevel" stroke-miterlimit="10"/><path fill="none" stroke="#e5e5e5" paint-order="fill stroke markers" d=" M 53 119 L 370 119" stroke-linejoin="bevel" stroke-miterlimit="10"/><path fill="none" stroke="#e5e5e5" paint-order="fill stroke markers" d=" M 53 47 L 370 47" stroke-linejoin="bevel" stroke-miterlimit="10"/></g><g><path fill="none" stroke="none"/><path fill="none" stroke="#000000" paint-order="fill stroke markers" d=" M 67.40909090909092 46.50000000000006 L 73.29035250463824 48.98409482422238 L 79.17161410018554 56.55733830370144 L 85.05287569573285 69.54553250339887 L 90.93413729128017 88.35100939366916 L 96.81539888682747 113.19263681889569 L 102.69666048237478 143.69554830367377 L 108.5779220779221 178.43035988058236 L 114.4591836734694 214.7095435199215 L 120.34044526901671 249.0323803887554 L 126.22170686456403 278.1969492479862 L 132.10296846011133 300.4246480984646 L 137.98423005565866 315.7063663703555 L 143.86549165120596 325.27928230442006 L 149.74675324675326 330.80378575577 L 155.62801484230056 333.7691995901012 L 161.50927643784786 335.2604242926333 L 167.39053803339516 335.96637008214947 L 173.27179962894252 336.28193306580124 L 179.15306122448982 336.4153687070964 L 185.03432282003712 336.46879917100415 L 190.91558441558442 336.48907193760573 L 196.79684601113172 336.4963634824699 L 202.67810760667908 336.498850223084 L 208.55936920222638 336.4996545608101 L 214.44063079777368 336.49990134579195 L 220.32189239332098 336.499973180664 L 226.20315398886828 336.4999930207664 L 232.08441558441558 336.49999822064984 L 237.96567717996288 336.4999995140357 L 243.84693877551024 336.4999998193777 L 249.72820037105754 336.4999998878009 L 255.60946196660484 336.4999999023559 L 261.49072356215214 336.49999990529517 L 267.37198515769944 336.4999999058587 L 273.2532467532468 336.4999999059613 L 279.1345083487941 336.499999905979 L 285.0157699443414 336.49999990598195 L 290.8970315398887 336.4999999059824 L 296.778293135436 336.49999990598246 L 302.6595547309833 336.49999990598246 L 308.5408163265306 336.49999990598246 L 314.4220779220779 336.49999990598246 L 320.30333951762526 336.49999990598246 L 326.18460111317256 336.49999990598246 L 332.06586270871986 336.49999990598246 L 337.9471243042672 336.49999990598246 L 343.8283858998145 336.49999990598246 L 349.7096474953618 336.49999990598246 L 355.5909090909091 336.49999990598246" stroke-linejoin="bevel" stroke-miterlimit="10"/></g><g><path fill="none" stroke="none"/><path fill="none" stroke="#FF0000" paint-order="fill stroke markers" d=" M 67.40909090909092 46.50000000000006 L 73.29035250463824 46.50000000000006 L 79.17161410018554 51.34832652904049 L 85.05287569573285 61.201671292097274 L 90.93413729128017 76.40925276811947 L 96.81539888682747 97.39012501649844 L 102.69666048237478 124.39274604825337 L 108.5779220779221 157.09883155178937 L 114.4591836734694 194.10788969026675 L 120.34044526901671 232.53943137895462 L 126.22170686456403 268.2516428058403 L 132.10296846011133 297.1112310623894 L 137.98423005565866 316.87453571820515 L 143.86549165120596 328.15344007624464 L 149.74675324675326 333.4911132241733 L 155.62801484230056 335.58925360312986 L 161.50927643784786 336.2729976717616 L 167.39053803339516 336.4550677334788 L 173.27179962894252 336.4933745971103 L 179.15306122448982 336.49935578077753 L 185.03432282003712 336.4999695970109 L 190.91558441558442 336.5 L 196.79684601113172 336.49999990097535 L 202.67810760667908 336.49999990650025 L 208.55936920222638 336.49999990590294 L 214.44063079777368 336.49999990599866 L 220.32189239332098 336.49999990597837 L 226.20315398886828 336.4999999059837 L 232.08441558441558 336.499999905982 L 237.96567717996288 336.49999990598263 L 243.84693877551024 336.4999999059824 L 249.72820037105754 336.4999999059825 L 255.60946196660484 336.49999990598246 L 261.49072356215214 336.49999990598246 L 267.37198515769944 336.49999990598246 L 273.2532467532468 336.49999990598246 L 279.1345083487941 336.49999990598246 L 285.0157699443414 336.49999990598246 L 290.8970315398887 336.49999990598246 L 296.778293135436 336.49999990598246 L 302.6595547309833 336.49999990598246 L 308.5408163265306 336.49999990598246 L 314.4220779220779 336.49999990598246 L 320.30333951762526 336.49999990598246 L 326.18460111317256 336.49999990598246 L 332.06586270871986 336.49999990598246 L 337.9471243042672 336.49999990598246 L 343.8283858998145 336.49999990598246 L 349.7096474953618 336.49999990598246 L 355.5909090909091 336.49999990598246" stroke-linejoin="bevel" stroke-miterlimit="10" stroke-opacity="0.5"/></g><g><path fill="none" stroke="none"/><path fill="none" stroke="#00FF00" paint-order="fill stroke markers" d=" M 67.40909090909092 46.50000000000006 L 73.29035250463824 48.9241632645203 L 79.17161410018554 56.33266361461665 L 85.05287569573285 69.0361037525264 L 90.93413729128017 87.42074051737043 L 96.81539888682747 111.7053124959057 L 102.69666048237478 141.5513752301716 L 108.5779220779221 175.6114162611106 L 114.4591836734694 211.30485024564143 L 120.34044526901671 245.2259834901967 L 126.22170686456403 274.2413052477276 L 132.10296846011133 296.61373215431024 L 137.98423005565866 312.32176523840104 L 143.86549165120596 322.51364843870556 L 149.74675324675326 328.7169007053855 L 155.62801484230056 332.3042373516392 L 161.50927643784786 334.29542796145915 L 167.39053803339516 335.3647755683635 L 173.27179962894252 335.9241040427827 L 179.15306122448982 336.2107152060265 L 185.03432282003712 336.3553787330047 L 190.91558441558442 336.427678657472 L 196.79684601113172 336.4636407653574 L 202.67810760667908 336.48153186933484 L 208.55936920222638 336.4904770813332 L 214.44063079777368 336.494992257194 L 220.32189239332098 336.4973028272968 L 226.20315398886828 336.4985061524773 L 232.08441558441558 336.4991460675063 L 237.96567717996288 336.4994945308494 L 243.84693877551024 336.4996892611631 L 249.72820037105754 336.4998010955775 L 255.60946196660484 336.49986713658143 L 261.49072356215214 336.4999072115374 L 267.37198515769944 336.4999321446046 L 273.2532467532468 336.4999479742159 L 279.1345083487941 336.4999581382785 L 285.0157699443414 336.4999646254471 L 290.8970315398887 336.49996859082944 L 296.778293135436 336.49997068770926 L 302.6595547309833 336.49997124314314 L 308.5408163265306 336.4999703415117 L 314.4220779220779 336.49996784513905 L 320.30333951762526 336.4999633586854 L 326.18460111317256 336.49995612420327 L 332.06586270871986 336.49994480762456 L 337.9471243042672 336.4999270923531 L 343.8283858998145 336.4998989076268 L 349.7096474953618 336.4998529376769 L 355.5909090909091 336.49977566966766" stroke-linejoin="bevel" stroke-miterlimit="10" stroke-opacity="0.5"/></g><g><path fill="none" stroke="none"/><path fill="none" stroke="#0000FF" paint-order="fill stroke markers" d=" M 67.40909090909092 46.50000000000006 L 73.29035250463824 48.88530341539149 L 79.17161410018554 56.25298369753477 L 85.05287569573285 68.91550632712995 L 90.93413729128017 87.2645783436607 L 96.81539888682747 111.52911393977672 L 102.69666048237478 141.3905592974085 L 108.5779220779221 175.54051242871626 L 114.4591836734694 211.45698861077886 L 120.34044526901671 245.77201257533272 L 126.22170686456403 275.29362537275875 L 132.10296846011133 298.1165422673926 L 137.98423005565866 314.0504498663978 L 143.86549165120596 324.19302681394333 L 149.74675324675326 330.14422906357015 L 155.62801484230056 333.3948690294766 L 161.50927643784786 335.0604144112722 L 167.39053803339516 335.86525372351974 L 173.27179962894252 336.233392755428 L 179.15306122448982 336.39318528411394 L 185.03432282003712 336.4591276606229 L 190.91558441558442 336.485042386854 L 196.79684601113172 336.49475656356014 L 202.67810760667908 336.4982359732521 L 208.55936920222638 336.49942916730254 L 214.44063079777368 336.4998218321024 L 220.32189239332098 336.49994616761927 L 226.20315398886828 336.4999841659547 L 232.08441558441558 336.4999954134538 L 237.96567717996288 336.49999865086545 L 243.84693877551024 336.4999995610432 L 249.72820037105754 336.4999998122207 L 255.60946196660484 336.4999998806269 L 261.49072356215214 336.4999998991184 L 267.37198515769944 336.49999990411027 L 273.2532467532468 336.49999990546456 L 279.1345083487941 336.4999999058362 L 285.0157699443414 336.49999990594 L 290.8970315398887 336.49999990596973 L 296.778293135436 336.4999999059785 L 302.6595547309833 336.49999990598116 L 308.5408163265306 336.499999905982 L 314.4220779220779 336.4999999059823 L 320.30333951762526 336.4999999059824 L 326.18460111317256 336.49999990598246 L 332.06586270871986 336.49999990598246 L 337.9471243042672 336.49999990598246 L 343.8283858998145 336.49999990598246 L 349.7096474953618 336.49999990598246 L 355.5909090909091 336.49999990598246" stroke-linejoin="bevel" stroke-miterlimit="10" stroke-opacity="0.5"/></g></g></g><g clip-path="url(#cTSRGFnnhBQk)"><g><g/><g><path fill="#ffffff" stroke="#e5e5e5" paint-order="fill stroke markers" d=" M 158.046875 42 L 360 42 L 360 151 L 158.046875 151 L 158.046875 42 Z" fill-opacity="0.95" stroke-linejoin="bevel" stroke-miterlimit="10" stroke-opacity="0.5"/><text fill="#444444" stroke="none" font-family="helvetica" font-size="10pt" font-style="normal" font-weight="normal" text-decoration="normal" x="193.046875" y="62" text-anchor="start" dominant-baseline="central">Exact solution</text><g><path fill="none" stroke="#000000" paint-order="fill stroke markers" d=" M 168.046875 62 L 188.046875 62" stroke-linejoin="bevel" stroke-miterlimit="10"/></g><text fill="#444444" stroke="none" font-family="helvetica" font-size="10pt" font-style="normal" font-weight="normal" text-decoration="normal" x="193.046875" y="85" text-anchor="start" dominant-baseline="central">Euler method</text><g><path fill="none" stroke="#FF0000" paint-order="fill stroke markers" d=" M 168.046875 85 L 188.046875 85" stroke-linejoin="bevel" stroke-miterlimit="10" stroke-opacity="0.5"/></g><text fill="#444444" stroke="none" font-family="helvetica" font-size="10pt" font-style="normal" font-weight="normal" text-decoration="normal" x="193.046875" y="108" text-anchor="start" dominant-baseline="central">Improved Euler method</text><g><path fill="none" stroke="#00FF00" paint-order="fill stroke markers" d=" M 168.046875 108 L 188.046875 108" stroke-linejoin="bevel" stroke-miterlimit="10" stroke-opacity="0.5"/></g><text fill="#444444" stroke="none" font-family="helvetica" font-size="10pt" font-style="normal" font-weight="normal" text-decoration="normal" x="193.046875" y="131" text-anchor="start" dominant-baseline="central">Runge-Kutta method</text><g><path fill="none" stroke="#0000FF" paint-order="fill stroke markers" d=" M 168.046875 131 L 188.046875 131" stroke-linejoin="bevel" stroke-miterlimit="10" stroke-opacity="0.5"/></g></g></g></g><g><g fill="#444444"><path fill="none" stroke="black" paint-order="fill stroke markers" d=" M 53 351 L 370 351" stroke-linejoin="bevel" stroke-miterlimit="10"/><path fill="none" stroke="black" paint-order="fill stroke markers" d=" M 67 357 L 67 349" stroke-linejoin="bevel" stroke-miterlimit="10"/><path fill="none" stroke="black" paint-order="fill stroke markers" d=" M 112 357 L 112 349" stroke-linejoin="bevel" stroke-miterlimit="10"/><path fill="none" stroke="black" paint-order="fill stroke markers" d=" M 157 357 L 157 349" stroke-linejoin="bevel" stroke-miterlimit="10"/><path fill="none" stroke="black" paint-order="fill stroke markers" d=" M 202 357 L 202 349" stroke-linejoin="bevel" stroke-miterlimit="10"/><path fill="none" stroke="black" paint-order="fill stroke markers" d=" M 248 357 L 248 349" stroke-linejoin="bevel" stroke-miterlimit="10"/><path fill="none" stroke="black" paint-order="fill stroke markers" d=" M 293 357 L 293 349" stroke-linejoin="bevel" stroke-miterlimit="10"/><path fill="none" stroke="black" paint-order="fill stroke markers" d=" M 338 357 L 338 349" stroke-linejoin="bevel" stroke-miterlimit="10"/><path fill="none" stroke="black" paint-order="fill stroke markers" d=" M 58 355 L 58 351" stroke-linejoin="bevel" stroke-miterlimit="10"/><path fill="none" stroke="black" paint-order="fill stroke markers" d=" M 67 355 L 67 351" stroke-linejoin="bevel" stroke-miterlimit="10"/><path fill="none" stroke="black" paint-order="fill stroke markers" d=" M 76 355 L 76 351" stroke-linejoin="bevel" stroke-miterlimit="10"/><path fill="none" stroke="black" paint-order="fill stroke markers" d=" M 85 355 L 85 351" stroke-linejoin="bevel" stroke-miterlimit="10"/><path fill="none" stroke="black" paint-order="fill stroke markers" d=" M 94 355 L 94 351" stroke-linejoin="bevel" stroke-miterlimit="10"/><path fill="none" stroke="black" paint-order="fill stroke markers" d=" M 103 355 L 103 351" stroke-linejoin="bevel" stroke-miterlimit="10"/><path fill="none" stroke="black" paint-order="fill stroke markers" d=" M 112 355 L 112 351" stroke-linejoin="bevel" stroke-miterlimit="10"/><path fill="none" stroke="black" paint-order="fill stroke markers" d=" M 121 355 L 121 351" stroke-linejoin="bevel" stroke-miterlimit="10"/><path fill="none" stroke="black" paint-order="fill stroke markers" d=" M 130 355 L 130 351" stroke-linejoin="bevel" stroke-miterlimit="10"/><path fill="none" stroke="black" paint-order="fill stroke markers" d=" M 139 355 L 139 351" stroke-linejoin="bevel" stroke-miterlimit="10"/><path fill="none" stroke="black" paint-order="fill stroke markers" d=" M 148 355 L 148 351" stroke-linejoin="bevel" stroke-miterlimit="10"/><path fill="none" stroke="black" paint-order="fill stroke markers" d=" M 157 355 L 157 351" stroke-linejoin="bevel" stroke-miterlimit="10"/><path fill="none" stroke="black" paint-order="fill stroke markers" d=" M 166 355 L 166 351" stroke-linejoin="bevel" stroke-miterlimit="10"/><path fill="none" stroke="black" paint-order="fill stroke markers" d=" M 175 355 L 175 351" stroke-linejoin="bevel" stroke-miterlimit="10"/><path fill="none" stroke="black" paint-order="fill stroke markers" d=" M 184 355 L 184 351" stroke-linejoin="bevel" stroke-miterlimit="10"/><path fill="none" stroke="black" paint-order="fill stroke markers" d=" M 193 355 L 193 351" stroke-linejoin="bevel" stroke-miterlimit="10"/><path fill="none" stroke="black" paint-order="fill stroke markers" d=" M 202 355 L 202 351" stroke-linejoin="bevel" stroke-miterlimit="10"/><path fill="none" stroke="black" paint-order="fill stroke markers" d=" M 212 355 L 212 351" stroke-linejoin="bevel" stroke-miterlimit="10"/><path fill="none" stroke="black" paint-order="fill stroke markers" d=" M 221 355 L 221 351" stroke-linejoin="bevel" stroke-miterlimit="10"/><path fill="none" stroke="black" paint-order="fill stroke markers" d=" M 230 355 L 230 351" stroke-linejoin="bevel" stroke-miterlimit="10"/><path fill="none" stroke="black" paint-order="fill stroke markers" d=" M 239 355 L 239 351" stroke-linejoin="bevel" stroke-miterlimit="10"/><path fill="none" stroke="black" paint-order="fill stroke markers" d=" M 248 355 L 248 351" stroke-linejoin="bevel" stroke-miterlimit="10"/><path fill="none" stroke="black" paint-order="fill stroke markers" d=" M 257 355 L 257 351" stroke-linejoin="bevel" stroke-miterlimit="10"/><path fill="none" stroke="black" paint-order="fill stroke markers" d=" M 266 355 L 266 351" stroke-linejoin="bevel" stroke-miterlimit="10"/><path fill="none" stroke="black" paint-order="fill stroke markers" d=" M 275 355 L 275 351" stroke-linejoin="bevel" stroke-miterlimit="10"/><path fill="none" stroke="black" paint-order="fill stroke markers" d=" M 284 355 L 284 351" stroke-linejoin="bevel" stroke-miterlimit="10"/><path fill="none" stroke="black" paint-order="fill stroke markers" d=" M 293 355 L 293 351" stroke-linejoin="bevel" stroke-miterlimit="10"/><path fill="none" stroke="black" paint-order="fill stroke markers" d=" M 302 355 L 302 351" stroke-linejoin="bevel" stroke-miterlimit="10"/><path fill="none" stroke="black" paint-order="fill stroke markers" d=" M 311 355 L 311 351" stroke-linejoin="bevel" stroke-miterlimit="10"/><path fill="none" stroke="black" paint-order="fill stroke markers" d=" M 320 355 L 320 351" stroke-linejoin="bevel" stroke-miterlimit="10"/><path fill="none" stroke="black" paint-order="fill stroke markers" d=" M 329 355 L 329 351" stroke-linejoin="bevel" stroke-miterlimit="10"/><path fill="none" stroke="black" paint-order="fill stroke markers" d=" M 338 355 L 338 351" stroke-linejoin="bevel" stroke-miterlimit="10"/><path fill="none" stroke="black" paint-order="fill stroke markers" d=" M 347 355 L 347 351" stroke-linejoin="bevel" stroke-miterlimit="10"/><path fill="none" stroke="black" paint-order="fill stroke markers" d=" M 356 355 L 356 351" stroke-linejoin="bevel" stroke-miterlimit="10"/><path fill="" stroke="black" paint-order="fill stroke markers" d=" M 365 355 L 365 351" stroke-linejoin="bevel" stroke-miterlimit="10"/><g transform="translate(67,362) rotate(0,0,0)"><text fill="" stroke="none" font-family="helvetica" font-size="8pt" font-style="normal" font-weight="normal" text-decoration="normal" x="0" y="0" text-anchor="middle" dominant-baseline="hanging">0</text><g transform="rotate(0,0,0) translate(-67,-362) translate(112,362) rotate(0,0,0)"><text fill="" stroke="none" font-family="helvetica" font-size="8pt" font-style="normal" font-weight="normal" text-decoration="normal" x="0" y="0" text-anchor="middle" dominant-baseline="hanging">1</text><g transform="rotate(0,0,0) translate(-112,-362) translate(157,362) rotate(0,0,0)"><text fill="" stroke="none" font-family="helvetica" font-size="8pt" font-style="normal" font-weight="normal" text-decoration="normal" x="0" y="0" text-anchor="middle" dominant-baseline="hanging">2</text><g transform="rotate(0,0,0) translate(-157,-362) translate(202,362) rotate(0,0,0)"><text fill="" stroke="none" font-family="helvetica" font-size="8pt" font-style="normal" font-weight="normal" text-decoration="normal" x="0" y="0" text-anchor="middle" dominant-baseline="hanging">3</text><g transform="rotate(0,0,0) translate(-202,-362) translate(248,362) rotate(0,0,0)"><text fill="" stroke="none" font-family="helvetica" font-size="8pt" font-style="normal" font-weight="normal" text-decoration="normal" x="0" y="0" text-anchor="middle" dominant-baseline="hanging">4</text><g transform="rotate(0,0,0) translate(-248,-362) translate(293,362) rotate(0,0,0)"><text fill="" stroke="none" font-family="helvetica" font-size="8pt" font-style="normal" font-weight="normal" text-decoration="normal" x="0" y="0" text-anchor="middle" dominant-baseline="hanging">5</text><g transform="rotate(0,0,0) translate(-293,-362) translate(338,362) rotate(0,0,0)"><text fill="" stroke="none" font-family="helvetica" font-size="8pt" font-style="normal" font-weight="normal" text-decoration="normal" x="0" y="0" text-anchor="middle" dominant-baseline="hanging">6</text><g transform="rotate(0,0,0) translate(-338,-362) translate(212,382) rotate(0,0,0)"><text fill="" stroke="none" font-family="helvetica" font-size="10pt" font-style="italic" font-weight="normal" text-decoration="normal" x="0" y="0" text-anchor="middle" dominant-baseline="hanging">x</text><g transform="rotate(0,0,0) translate(-212,-382)"/></g></g></g></g></g></g></g></g></g><g fill="#444444"><path fill="none" stroke="black" paint-order="fill stroke markers" d=" M 53 351 L 53 32" stroke-linejoin="bevel" stroke-miterlimit="10"/><path fill="none" stroke="black" paint-order="fill stroke markers" d=" M 47 336 L 55 336" stroke-linejoin="bevel" stroke-miterlimit="10"/><path fill="none" stroke="black" paint-order="fill stroke markers" d=" M 47 264 L 55 264" stroke-linejoin="bevel" stroke-miterlimit="10"/><path fill="none" stroke="black" paint-order="fill stroke markers" d=" M 47 191 L 55 191" stroke-linejoin="bevel" stroke-miterlimit="10"/><path fill="none" stroke="black" paint-order="fill stroke markers" d=" M 47 119 L 55 119" stroke-linejoin="bevel" stroke-miterlimit="10"/><path fill="none" stroke="black" paint-order="fill stroke markers" d=" M 47 47 L 55 47" stroke-linejoin="bevel" stroke-miterlimit="10"/><path fill="none" stroke="black" paint-order="fill stroke markers" d=" M 49 351 L 53 351" stroke-linejoin="bevel" stroke-miterlimit="10"/><path fill="none" stroke="black" paint-order="fill stroke markers" d=" M 49 336 L 53 336" stroke-linejoin="bevel" stroke-miterlimit="10"/><path fill="none" stroke="black" paint-order="fill stroke markers" d=" M 49 322 L 53 322" stroke-linejoin="bevel" stroke-miterlimit="10"/><path fill="none" stroke="black" paint-order="fill stroke markers" d=" M 49 307 L 53 307" stroke-linejoin="bevel" stroke-miterlimit="10"/><path fill="none" stroke="black" paint-order="fill stroke markers" d=" M 49 293 L 53 293" stroke-linejoin="bevel" stroke-miterlimit="10"/><path fill="none" stroke="black" paint-order="fill stroke markers" d=" M 49 278 L 53 278" stroke-linejoin="bevel" stroke-miterlimit="10"/><path fill="none" stroke="black" paint-order="fill stroke markers" d=" M 49 264 L 53 264" stroke-linejoin="bevel" stroke-miterlimit="10"/><path fill="none" stroke="black" paint-order="fill stroke markers" d=" M 49 249 L 53 249" stroke-linejoin="bevel" stroke-miterlimit="10"/><path fill="none" stroke="black" paint-order="fill stroke markers" d=" M 49 235 L 53 235" stroke-linejoin="bevel" stroke-miterlimit="10"/><path fill="none" stroke="black" paint-order="fill stroke markers" d=" M 49 220 L 53 220" stroke-linejoin="bevel" stroke-miterlimit="10"/><path fill="none" stroke="black" paint-order="fill stroke markers" d=" M 49 206 L 53 206" stroke-linejoin="bevel" stroke-miterlimit="10"/><path fill="none" stroke="black" paint-order="fill stroke markers" d=" M 49 191 L 53 191" stroke-linejoin="bevel" stroke-miterlimit="10"/><path fill="none" stroke="black" paint-order="fill stroke markers" d=" M 49 177 L 53 177" stroke-linejoin="bevel" stroke-miterlimit="10"/><path fill="none" stroke="black" paint-order="fill stroke markers" d=" M 49 162 L 53 162" stroke-linejoin="bevel" stroke-miterlimit="10"/><path fill="none" stroke="black" paint-order="fill stroke markers" d=" M 49 148 L 53 148" stroke-linejoin="bevel" stroke-miterlimit="10"/><path fill="none" stroke="black" paint-order="fill stroke markers" d=" M 49 133 L 53 133" stroke-linejoin="bevel" stroke-miterlimit="10"/><path fill="none" stroke="black" paint-order="fill stroke markers" d=" M 49 119 L 53 119" stroke-linejoin="bevel" stroke-miterlimit="10"/><path fill="none" stroke="black" paint-order="fill stroke markers" d=" M 49 104 L 53 104" stroke-linejoin="bevel" stroke-miterlimit="10"/><path fill="none" stroke="black" paint-order="fill stroke markers" d=" M 49 90 L 53 90" stroke-linejoin="bevel" stroke-miterlimit="10"/><path fill="none" stroke="black" paint-order="fill stroke markers" d=" M 49 75 L 53 75" stroke-linejoin="bevel" stroke-miterlimit="10"/><path fill="none" stroke="black" paint-order="fill stroke markers" d=" M 49 61 L 53 61" stroke-linejoin="bevel" stroke-miterlimit="10"/><path fill="none" stroke="black" paint-order="fill stroke markers" d=" M 49 47 L 53 47" stroke-linejoin="bevel" stroke-miterlimit="10"/><path fill="" stroke="black" paint-order="fill stroke markers" d=" M 49 32 L 53 32" stroke-linejoin="bevel" stroke-miterlimit="10"/><g transform="translate(42,336) rotate(0,0,0)"><text fill="" stroke="none" font-family="helvetica" font-size="8pt" font-style="normal" font-weight="normal" text-decoration="normal" x="0" y="0" text-anchor="end" dominant-baseline="central">0</text><g transform="rotate(0,0,0) translate(-42,-336) translate(42,264) rotate(0,0,0)"><text fill="" stroke="none" font-family="helvetica" font-size="8pt" font-style="normal" font-weight="normal" text-decoration="normal" x="0" y="0" text-anchor="end" dominant-baseline="central">0.5</text><g transform="rotate(0,0,0) translate(-42,-264) translate(42,191) rotate(0,0,0)"><text fill="" stroke="none" font-family="helvetica" font-size="8pt" font-style="normal" font-weight="normal" text-decoration="normal" x="0" y="0" text-anchor="end" dominant-baseline="central">1</text><g transform="rotate(0,0,0) translate(-42,-191) translate(42,119) rotate(0,0,0)"><text fill="" stroke="none" font-family="helvetica" font-size="8pt" font-style="normal" font-weight="normal" text-decoration="normal" x="0" y="0" text-anchor="end" dominant-baseline="central">1.5</text><g transform="rotate(0,0,0) translate(-42,-119) translate(42,47) rotate(0,0,0)"><text fill="" stroke="none" font-family="helvetica" font-size="8pt" font-style="normal" font-weight="normal" text-decoration="normal" x="0" y="0" text-anchor="end" dominant-baseline="central">2</text><g transform="rotate(0,0,0) translate(-42,-47) translate(18,192) rotate(-90,0,0)"><text fill="" stroke="none" font-family="helvetica" font-size="10pt" font-style="italic" font-weight="normal" text-decoration="normal" x="0" y="0" text-anchor="middle" dominant-baseline="alphabetic">y</text><g transform="rotate(90,0,0) translate(-18,-192)"/></g></g></g></g></g></g></g><g fill="#444444"><path fill="" stroke="none" d=""/><g transform="translate(53,27)"><path fill="none" stroke="none"/><text fill="" stroke="none" font-family="helvetica" font-size="10pt" font-style="normal" font-weight="bold" text-decoration="normal" x="0" y="0" text-anchor="start" dominant-baseline="text-after-edge">Methods Comparison</text></g></g></g></g></g></svg>