<svg version="1.1" xmlns="http://www.w3.org/2000/svg" xmlns:xlink="http://www.w3.org/1999/xlink" width="400" height="400" style="width: 400px; height: 400px;"><defs><clipPath id="bSRouyxukGdX"><path fill="none" stroke="none" d=" M 53 32 L 370 32 L 370 351 L 53 351 L 53 32 Z"/></clipPath><clipPath id="alyGkHNQuNxd"><path fill="none" stroke="none" d=" M 53 32 L 370 32 L 370 351 L 53 351 L 53 32 Z"/></clipPath></defs><g><g transform="scale(1,1) translate(0.5,0.5)"><rect fill="#FFFFFF" stroke="none" x="0" y="0" width="400" height="400"/><rect fill="#ffffff" stroke="none" x="0" y="0" width="400" height="400"/><rect fill="#FFFFFF" stroke="none" x="53" y="32" width="317" height="319"/><rect fill="#ffffff" stroke="none" x="53" y="32" width="317" height="319"/><g><rect fill="none" stroke="#e5e5e5" x="53" y="32" width="317" height="319" stroke-linejoin="bevel" stroke-miterlimit="10"/></g><g clip-path="url(#bSRouyxukGdX)"><g><g><path fill="none" stroke="#e5e5e5" paint-order="fill stroke markers" d=" M 67 351 L 67 32" stroke-linejoin="bevel" stroke-miterlimit="10"/><path fill="none" stroke="#e5e5e5" paint-order="fill stroke markers" d=" M 112 351 L 112 32" stroke-linejoin="bevel" stroke-miterlimit="10"/><path fill="none" stroke="#e5e5e5" paint-order="fill stroke markers" d=" M 157 351 L 157 32" stroke-linejoin="bevel" stroke-miterlimit="10"/><path fill="none" stroke="#e5e5e5" paint-order="fill stroke markers" d=" M 202 351 L 202 32" stroke-linejoin="bevel" stroke-miterlimit="10"/><path fill="none" stroke="#e5e5e5" paint-order="fill stroke markers" d=" M 248 351 L 248 32" stroke-linejoin="bevel" stroke-miterlimit="10"/><path fill="none" stroke="#e5e5e5" paint-order="fill stroke markers" d=" M 293 351 L 293 32" stroke-linejoin="bevel" stroke-miterlimit="10"/><path fill="none" stroke="#e5e5e5" paint-order="fill stroke markers" d=" M 338 351 L 338 32" stroke-linejoin="bevel" stroke-miterlimit="10"/></g><g><path fill="none" stroke="#e5e5e5" paint-order="fill stroke markers" d=" M 53 337 L 370 337" stroke-linejoin="bevel" stroke-miterlimit="10"/><path fill="none" stroke="#e5e5e5" paint-order="fill stroke markers" d=" M 53 264 L 370 264" stroke-linejoin="bevel" stroke-miterlimit="10"/><path fill="none" stroke="#e5e5e5" paint-order="fill stroke markers" d=" M 53 192 L 370 192" stroke-linejoin="bevel" stroke-miterlimit="10"/><path fill="none" stroke="#e5e5e5" paint-order="fill stroke markers" d=" M 53 119 L 370 119" stroke-linejoin="bevel" stroke-miterlimit="10"/><path fill="none" stroke="#e5e5e5" paint-order="fill stroke markers" d=" M 53 47 L 370 47" stroke-linejoin="bevel" stroke-miterlimit="10"/></g><g><path fill="none" stroke="none"/><path fill="none" stroke="#000000" paint-order="fill stroke markers" d=" M 67.40909090909092 46.5 L 69.18799102132436 46.72639519787947 L 70.96689113355781 47.406636257565026 L 72.74579124579125 48.543864432450505 L 74.5246913580247 50.1432299833325 L 76.30359147025814 52.21175975684059 L 78.0824915824916 54.758162556763125 L 79.86139169472504 57.79256338560731 L 81.64029180695849 61.326155627214234 L 83.41919191919193 65.37075880166327 L 85.19809203142538 69.93826895088768 L 86.97699214365882 75.03998940064099 L 88.75589225589226 80.68583207594011 L 90.53479236812571 86.88338427495708 L 92.31369248035915 93.63684339625854 L 94.0925925925926 100.94583304921568 L 95.87149270482604 108.80412851071154 L 97.6503928170595 117.19833744991172 L 99.42929292929294 126.10660239666737 L 101.20819304152639 135.49741286702223 L 102.98709315375983 145.32863464336242 L 104.76599326599327 155.5468777020101 L 106.54489337822672 166.0873282684977 L 108.32379349046016 176.87416003230325 L 110.10269360269362 187.8216112643096 L 111.88159371492705 198.8357673202158 L 113.66049382716051 209.81702408145975 L 115.43939393939394 220.6631336517099 L 117.2182940516274 231.27265922139821 L 118.99719416386084 241.54860383111668 L 120.77609427609428 251.4019399331856 L 122.55499438832773 260.7547620333472 L 124.33389450056117 269.5428163464947 L 126.11279461279462 277.7172253657219 L 127.89169472502806 285.24531121192007 L 129.6705948372615 292.110515324231 L 131.44949494949498 298.3114986008793 L 133.2283950617284 303.860573340139 L 135.00729517396184 308.78165906041085 L 136.7861952861953 313.10796697939367 L 138.56509539842875 316.8796060254135 L 140.34399551066218 320.14127338481285 L 142.1228956228956 322.94015262248183 L 143.90179573512907 325.3240997047648 L 145.68069584736253 327.3401575334959 L 147.45959595959596 329.0334065149347 L 149.23849607182942 330.4461338934558 L 151.01739618406285 331.6172881555056 L 152.7962962962963 332.5821757926459 L 154.57519640852973 333.3723546083045 L 156.35409652076316 334.0156789285412 L 158.13299663299662 334.5364560229296 L 159.91189674523008 334.95567850815337 L 161.6907968574635 335.2913035503151 L 163.46969696969697 335.5585556498274 L 165.24859708193043 335.7702352788314 L 167.02749719416386 335.9370204290942 L 168.80639730639732 336.0677521375717 L 170.58529741863077 336.1696982957896 L 172.3641975308642 336.24879257946594 L 174.14309764309763 336.30984724493067 L 175.92199775533106 336.3567399267324 L 177.70089786756455 336.3925755324882 L 179.47979797979798 336.4198249546399 L 181.2586980920314 336.4404426814615 L 183.03759820426487 336.4559655566473 L 184.81649831649833 336.46759496178373 L 186.59539842873176 336.4762646221095 L 188.3742985409652 336.4826960971194 L 190.15319865319864 336.48744383983404 L 191.9320987654321 336.4909315114815 L 193.71099887766553 336.4934810361596 L 195.48989898989902 336.49533568273154 L 197.26879910213245 336.49667827538616 L 199.04769921436588 336.4976454640192 L 200.8265993265993 336.4983388329591 L 202.60549943883274 336.49883349226684 L 204.38439955106622 336.4991846795487 L 206.16329966329965 336.4994328009589 L 207.94219977553308 336.49960725640886 L 209.72109988776657 336.4997293243339 L 211.5 336.4998143239771 L 213.27890011223343 336.49987322636275 L 215.05780022446686 336.49991384735824 L 216.83670033670035 336.4999417260073 L 218.61560044893378 336.49996076736454 L 220.3945005611672 336.4999737102337 L 222.1734006734007 336.4999824655356 L 223.95230078563412 336.4999883596826 L 225.73120089786755 336.49999230863045 L 227.51010101010098 336.49999494164774 L 229.2890011223344 336.4999966888336 L 231.0679012345679 336.4999978426556 L 232.84680134680133 336.49999860097813 L 234.62570145903476 336.4999990969827 L 236.40460157126824 336.4999994198582 L 238.18350168350167 336.49999962903 L 239.9624017957351 336.4999997638924 L 241.7413019079686 336.4999998504289 L 243.52020202020202 336.49999990569125 L 245.29910213243545 336.4999999408135 L 247.07800224466894 336.4999999630291 L 248.8569023569023 336.49999997701394 L 250.6358024691358 336.49999998577556 L 252.41470258136923 336.49999999123867 L 254.19360269360266 336.49999999462875 L 255.97250280583614 336.49999999672247 L 257.7514029180696 336.4999999980094 L 259.530303030303 336.4999999987967 L 261.3092031425365 336.499999999276 L 263.0881032547699 336.4999999995664 L 264.86700336700335 336.49999999974153 L 266.6459034792368 336.49999999984664 L 268.42480359147027 336.49999999990945 L 270.2037037037037 336.4999999999468 L 271.9826038159371 336.49999999996885 L 273.7615039281706 336.49999999998187 L 275.540404040404 336.4999999999895 L 277.31930415263747 336.4999999999939 L 279.09820426487096 336.49999999999653 L 280.87710437710433 336.499999999998 L 282.6560044893378 336.49999999999886 L 284.43490460157125 336.4999999999994 L 286.2138047138047 336.49999999999966 L 287.99270482603816 336.4999999999998 L 289.7716049382716 336.4999999999999 L 291.550505050505 336.49999999999994 L 293.32940516273845 336.49999999999994 L 295.10830527497194 336.5 L 296.88720538720537 336.5 L 298.6661054994388 336.5 L 300.4450056116723 336.5 L 302.2239057239057 336.5 L 304.00280583613915 336.5 L 305.78170594837263 336.5 L 307.56060606060606 336.5 L 309.3395061728395 336.5 L 311.1184062850729 336.5 L 312.89730639730635 336.5 L 314.67620650953984 336.5 L 316.45510662177327 336.5 L 318.2340067340067 336.5 L 320.0129068462401 336.5 L 321.7918069584736 336.5 L 323.5707070707071 336.5 L 325.3496071829405 336.5 L 327.12850729517396 336.5 L 328.9074074074074 336.5 L 330.6863075196408 336.5 L 332.4652076318743 336.5 L 334.24410774410774 336.5 L 336.02300785634117 336.5 L 337.8019079685746 336.5 L 339.5808080808081 336.5 L 341.3597081930415 336.5 L 343.13860830527494 336.5 L 344.91750841750843 336.5 L 346.69640852974186 336.5 L 348.4753086419753 336.5 L 350.2542087542088 336.5 L 352.0331088664422 336.5 L 353.81200897867564 336.5 L 355.5909090909091 336.5" stroke-linejoin="bevel" stroke-miterlimit="10"/></g><g><path fill="none" stroke="none"/><path fill="none" stroke="#FF0000" paint-order="fill stroke markers" d=" M 67.40909090909092 46.5 L 69.18799102132436 46.5 L 70.96689113355781 46.94983715822161 L 72.74579124579125 47.85090268640727 L 74.5246913580247 49.20664200252804 L 76.30359147025814 51.02247092215157 L 78.0824915824916 53.30563816854237 L 79.86139169472504 56.065028140622246 L 81.64029180695849 59.31089555345875 L 83.41919191919193 63.054521541894474 L 85.19809203142538 67.30777927385094 L 86.97699214365882 72.08259630968581 L 88.75589225589226 77.39030120903766 L 90.53479236812571 83.24084366038926 L 92.31369248035915 89.64188120730671 L 94.0925925925926 96.59773203475856 L 95.87149270482604 104.1082028072905 L 97.6503928170595 112.16731363656876 L 99.42929292929294 120.76195902305619 L 101.20819304152639 129.87056368044486 L 102.98709315375983 139.46181437243035 L 104.76599326599327 149.493571145003 L 106.54489337822672 159.91208037747322 L 108.32379349046016 170.65162359966388 L 110.10269360269362 181.63473506103207 L 111.88159371492705 192.77310275438487 L 113.66049382716051 203.9692285077875 L 115.43939393939394 215.1188622015469 L 117.2182940516274 226.11414667315762 L 118.99719416386084 236.8473219060478 L 120.77609427609428 247.2147526199286 L 122.55499438832773 257.12097790216546 L 124.33389450056117 266.4824497765155 L 126.11279461279462 275.2306396100219 L 127.89169472502806 283.31424895744914 L 129.6705948372615 290.70035726990426 L 131.44949494949498 297.3744569944893 L 133.2283950617284 303.3394465311472 L 135.00729517396184 308.6137533290457 L 136.7861952861953 313.2288283191094 L 138.56509539842875 317.22628218521044 L 140.34399551066218 320.6549254084085 L 142.1228956228956 323.5679358767847 L 143.90179573512907 326.02032187009024 L 145.68069584736253 328.0667863507964 L 147.45959595959596 329.76004047995815 L 149.23849607182942 331.14956649597565 L 151.01739618406285 332.2807954367448 L 152.7962962962963 333.1946437208794 L 154.57519640852973 333.92734255852486 L 156.35409652076316 334.5104928751726 L 158.13299663299662 334.9712830925249 L 159.91189674523008 335.3328152251922 L 161.6907968574635 335.61449436337597 L 163.46969696969697 335.8324463404132 L 165.24859708193043 335.9999373659649 L 167.02749719416386 336.1277771824746 L 168.80639730639732 336.2246937054356 L 170.58529741863077 336.29767215521554 L 172.3641975308642 336.3522555051491 L 174.14309764309763 336.392805833289 L 175.92199775533106 336.4227280630369 L 177.70089786756455 336.44465879182206 L 179.47979797979798 336.460623598152 L 181.2586980920314 336.4721665224481 L 183.03759820426487 336.48045544801107 L 184.81649831649833 336.486366954176 L 186.59539842873176 336.4905539430092 L 188.3742985409652 336.49349900551783 L 190.15319865319864 336.49555613109203 L 191.9320987654321 336.49698300132127 L 193.71099887766553 336.4979657641725 L 195.48989898989902 336.4986378677397 L 197.26879910213245 336.4990942502565 L 199.04769921436588 336.49940193698154 L 200.8265993265993 336.49960788454337 L 202.60549943883274 336.4997447372583 L 204.38439955106622 336.4998350147223 L 206.16329966329965 336.4998941319877 L 207.94219977553308 336.49993255910795 L 209.72109988776657 336.4999573520985 L 211.5 336.49997322901623 L 213.27890011223343 336.49998331986984 L 215.05780022446686 336.4999896847738 L 216.83670033670035 336.49999366892143 L 218.61560044893378 336.49999614369557 L 220.3945005611672 336.4999976690431 L 222.1734006734007 336.49999860189195 L 223.95230078563412 336.4999991679208 L 225.73120089786755 336.499999508663 L 227.51010101010098 336.49999971215533 L 229.2890011223344 336.4999998327087 L 231.0679012345679 336.4999999035511 L 232.84680134680133 336.4999999448429 L 234.62570145903476 336.4999999687135 L 236.40460157126824 336.49999998239906 L 238.18350168350167 336.49999999018013 L 239.9624017957351 336.499999994567 L 241.7413019079686 336.4999999970194 L 243.52020202020202 336.49999999837866 L 245.29910213243545 336.49999999912563 L 247.07800224466894 336.4999999995325 L 248.8569023569023 336.4999999997522 L 250.6358024691358 336.49999999986983 L 252.41470258136923 336.49999999993224 L 254.19360269360266 336.49999999996504 L 255.97250280583614 336.4999999999821 L 257.7514029180696 336.49999999999096 L 259.530303030303 336.49999999999545 L 261.3092031425365 336.4999999999977 L 263.0881032547699 336.49999999999886 L 264.86700336700335 336.49999999999943 L 266.6459034792368 336.4999999999997 L 268.42480359147027 336.4999999999999 L 270.2037037037037 336.49999999999994 L 271.9826038159371 336.5 L 273.7615039281706 336.5 L 275.540404040404 336.5 L 277.31930415263747 336.5 L 279.09820426487096 336.5 L 280.87710437710433 336.5 L 282.6560044893378 336.5 L 284.43490460157125 336.5 L 286.2138047138047 336.5 L 287.99270482603816 336.5 L 289.7716049382716 336.5 L 291.550505050505 336.5 L 293.32940516273845 336.5 L 295.10830527497194 336.5 L 296.88720538720537 336.5 L 298.6661054994388 336.5 L 300.4450056116723 336.5 L 302.2239057239057 336.5 L 304.00280583613915 336.5 L 305.78170594837263 336.5 L 307.56060606060606 336.5 L 309.3395061728395 336.5 L 311.1184062850729 336.5 L 312.89730639730635 336.5 L 314.67620650953984 336.5 L 316.45510662177327 336.5 L 318.2340067340067 336.5 L 320.0129068462401 336.5 L 321.7918069584736 336.5 L 323.5707070707071 336.5 L 325.3496071829405 336.5 L 327.12850729517396 336.5 L 328.9074074074074 336.5 L 330.6863075196408 336.5 L 332.4652076318743 336.5 L 334.24410774410774 336.5 L 336.02300785634117 336.5 L 337.8019079685746 336.5 L 339.5808080808081 336.5 L 341.3597081930415 336.5 L 343.13860830527494 336.5 L 344.91750841750843 336.5 L 346.69640852974186 336.5 L 348.4753086419753 336.5 L 350.2542087542088 336.5 L 352.0331088664422 336.5 L 353.81200897867564 336.5 L 355.5909090909091 336.5" stroke-linejoin="bevel" stroke-miterlimit="10" stroke-opacity="0.5"/></g><g><path fill="none" stroke="none"/><path fill="none" stroke="#00FF00" paint-order="fill stroke markers" d=" M 67.40909090909092 46.5 L 69.18799102132436 46.724918579110806 L 70.96689113355781 47.400890809081375 L 72.74579124579125 48.531016183009456 L 74.5246913580247 50.120376250430866 L 76.30359147025814 52.1759048069938 L 78.0824915824916 54.70619712227244 L 79.86139169472504 57.72124950060078 L 81.64029180695849 61.23211850298003 L 83.41919191919193 65.25048773507064 L 85.19809203142538 69.78812951570978 L 86.97699214365882 74.85624936180619 L 88.75589225589226 80.46470352765647 L 90.53479236812571 86.62108435685465 L 92.31369248035915 93.3296754979109 L 94.0925925925926 100.59028958209683 L 95.87149270482604 108.39701503234653 L 97.6503928170595 116.736916130959 L 99.42929292929294 125.5887505591457 L 101.20819304152639 134.92178971997237 L 102.98709315375983 144.6948466498139 L 104.76599326599327 154.85563059896023 L 106.54489337822672 165.34055209228643 L 108.32379349046016 176.0750930600747 L 110.10269360269362 186.974829969575 L 111.88159371492705 197.9471524526991 L 113.66049382716051 208.89365770497702 L 115.43939393939394 219.71312794215783 L 117.2182940516274 230.30492426734557 L 118.99719416386084 240.57256765509132 L 120.77609427609428 250.4272385642603 L 122.55499438832773 259.79092005365544 L 124.33389450056117 268.59893862491055 L 126.11279461279462 276.80171880510716 L 127.89169472502806 284.36565172458654 L 129.6705948372615 291.27307055352526 L 131.44949494949498 297.52141180185714 L 133.2283950617284 303.121708916482 L 135.00729517396184 308.09660598155995 L 136.7861952861953 312.47809296247266 L 138.56509539842875 316.3051530995738 L 140.34399551066218 319.6214842700024 L 142.1228956228956 322.4734171562054 L 143.90179573512907 324.9081111707914 L 145.68069584736253 326.97206997322695 L 147.45959595959596 328.7099857088055 L 149.23849607182942 330.1638964727636 L 151.01739618406285 331.3726250642405 L 152.7962962962963 332.37145792924474 L 154.57519640852973 333.19201985209173 L 156.35409652076316 333.8623008527419 L 158.13299663299662 334.40679540935116 L 159.91189674523008 334.84671932752315 L 161.6907968574635 335.2002753921713 L 163.46969696969697 335.4829447194418 L 165.24859708193043 335.70778606952473 L 167.02749719416386 335.8857300669613 L 168.80639730639732 336.0258592170477 L 170.58529741863077 336.13566780725154 L 172.3641975308642 336.2212982963946 L 174.14309764309763 336.2877527044638 L 175.92199775533106 336.3390789151856 L 177.70089786756455 336.3785327840208 L 179.47979797979798 336.40871759095114 L 181.2586980920314 336.43170276508425 L 183.03759820426487 336.4491240001744 L 184.81649831649833 336.4622669291267 L 186.59539842873176 336.4721364737577 L 188.3742985409652 336.479513866979 L 190.15319865319864 336.4850031839896 L 191.9320987654321 336.4890690365082 L 193.71099887766553 336.49206689387233 L 195.48989898989902 336.4942673071166 L 197.26879910213245 336.4958751337907 L 199.04769921436588 336.4970446965867 L 200.8265993265993 336.49789166021156 L 202.60549943883274 336.4985022793043 L 204.38439955106622 336.4989405555001 L 206.16329966329965 336.49925374322385 L 207.94219977553308 336.49947656025313 L 209.72109988776657 336.49963438907025 L 211.5 336.4997456969693 L 213.27890011223343 336.49982385524135 L 215.05780022446686 336.49987849902305 L 216.83670033670035 336.4999165381879 L 218.61560044893378 336.49994290473563 L 220.3945005611672 336.49996110238646 L 222.1734006734007 336.49997360857276 L 223.95230078563412 336.4999821669175 L 225.73120089786755 336.49998799892194 L 227.51010101010098 336.49999195638645 L 229.2890011223344 336.49999463059544 L 231.0679012345679 336.4999964301327 L 232.84680134680133 336.49999763606155 L 234.62570145903476 336.49999844085806 L 236.40460157126824 336.4999989757455 L 238.18350168350167 336.49999932979085 L 239.9624017957351 336.4999995631819 L 241.7413019079686 336.4999997164129 L 243.52020202020202 336.49999981661 L 245.29910213243545 336.4999998818657 L 247.07800224466894 336.4999999241953 L 248.8569023569023 336.49999995154445 L 250.6358024691358 336.49999996914494 L 252.41470258136923 336.49999998042716 L 254.19360269360266 336.499999987631 L 255.97250280583614 336.4999999922129 L 257.7514029180696 336.49999999511584 L 259.530303030303 336.499999996948 L 261.3092031425365 336.49999999809995 L 263.0881032547699 336.49999999882147 L 264.86700336700335 336.49999999927167 L 266.6459034792368 336.49999999955156 L 268.42480359147027 336.4999999997249 L 270.2037037037037 336.4999999998318 L 271.9826038159371 336.49999999989757 L 273.7615039281706 336.4999999999378 L 275.540404040404 336.49999999996237 L 277.31930415263747 336.4999999999773 L 279.09820426487096 336.4999999999864 L 280.87710437710433 336.49999999999187 L 282.6560044893378 336.4999999999951 L 284.43490460157125 336.4999999999971 L 286.2138047138047 336.4999999999983 L 287.99270482603816 336.499999999999 L 289.7716049382716 336.49999999999943 L 291.550505050505 336.49999999999966 L 293.32940516273845 336.4999999999998 L 295.10830527497194 336.4999999999999 L 296.88720538720537 336.49999999999994 L 298.6661054994388 336.49999999999994 L 300.4450056116723 336.5 L 302.2239057239057 336.5 L 304.00280583613915 336.5 L 305.78170594837263 336.5 L 307.56060606060606 336.5 L 309.3395061728395 336.5 L 311.1184062850729 336.5 L 312.89730639730635 336.5 L 314.67620650953984 336.5 L 316.45510662177327 336.5 L 318.2340067340067 336.5 L 320.0129068462401 336.5 L 321.7918069584736 336.5 L 323.5707070707071 336.5 L 325.3496071829405 336.5 L 327.12850729517396 336.5 L 328.9074074074074 336.5 L 330.6863075196408 336.5 L 332.4652076318743 336.5 L 334.24410774410774 336.5 L 336.02300785634117 336.5 L 337.8019079685746 336.5 L 339.5808080808081 336.5 L 341.3597081930415 336.5 L 343.13860830527494 336.5 L 344.91750841750843 336.5 L 346.69640852974186 336.5 L 348.4753086419753 336.5 L 350.2542087542088 336.5 L 352.0331088664422 336.5 L 353.81200897867564 336.5 L 355.5909090909091 336.5" stroke-linejoin="bevel" stroke-miterlimit="10" stroke-opacity="0.5"/></g><g><path fill="none" stroke="none"/><path fill="none" stroke="#0000FF" paint-order="fill stroke markers" d=" M 67.40909090909092 46.5 L 69.18799102132436 46.72362477630094 L 70.96689113355781 47.39829717635337 L 72.74579124579125 48.52711402569588 L 74.5246913580247 50.11515757782564 L 76.30359147025814 52.16936574092057 L 78.0824915824916 54.6983413326426 L 79.86139169472504 57.71209165983828 L 81.64029180695849 61.221687755150015 L 83.41919191919193 65.23883118481723 L 85.19809203142538 69.77531576040298 L 86.97699214365882 74.84237212119564 L 88.75589225589226 80.44988547122182 L 90.53479236812571 86.6054812893752 L 92.31369248035915 93.31348113268191 L 94.0925925925926 100.57374119456628 L 95.87149270482604 108.380400319676 L 97.6503928170595 116.72058156781284 L 99.42929292929294 125.5731113894939 L 101.20819304152639 134.90734140920497 L 102.98709315375983 144.6821771046299 L 104.76599326599327 154.84543174435345 L 106.54489337822672 165.33362853903895 L 108.32379349046016 176.0723647514629 L 110.10269360269362 186.97732509993511 L 111.88159371492705 197.95598689823885 L 113.66049382716051 208.90999797901128 L 115.43939393939394 219.73813644176258 L 117.2182940516274 230.33968824392934 L 118.99719416386084 240.61801654798774 L 120.77609427609428 250.48405744295403 L 122.55499438832773 259.85946914568 L 124.33389450056117 268.67918957677057 L 126.11279461279462 276.8932170687158 L 127.89169472502806 284.46751138910514 L 129.6705948372615 291.38400362917434 L 131.44949494949498 297.6397892951508 L 133.2283950617284 303.2456469553158 L 135.00729517396184 308.2240674900699 L 136.7861952861953 312.60699431520186 L 138.56509539842875 316.4334657614022 L 140.34399551066218 319.7473232884081 L 142.1228956228956 322.5951109788832 L 143.90179573512907 325.02425006193346 L 145.68069584736253 327.0815328457213 L 147.45959595959596 328.81194718903294 L 149.23849607182942 330.2578173485493 L 151.01739618406285 331.45822994957905 L 152.7962962962963 332.44870411471936 L 154.57519640852973 333.2610610419438 L 156.35409652076316 333.9234489674772 L 158.13299663299662 334.4604829870087 L 159.91189674523008 334.89346438781394 L 161.6907968574635 335.24065000420717 L 163.46969696969697 335.5175479758479 L 165.24859708193043 335.73722173510646 L 167.02749719416386 335.9105888406489 L 168.80639730639732 336.046705313439 L 170.58529741863077 336.1530294151814 L 172.3641975308642 336.23566139098324 L 174.14309764309763 336.29955766053854 L 175.92199775533106 336.34871937971974 L 177.70089786756455 336.38635630118074 L 179.47979797979798 336.4150275255874 L 181.2586980920314 336.43676113126895 L 183.03759820426487 336.4531548648478 L 184.81649831649833 336.4654601228729 L 186.59539842873176 336.47465139837567 L 188.3742985409652 336.48148324111935 L 190.15319865319864 336.4865366128135 L 191.9320987654321 336.49025632884474 L 193.71099887766553 336.492981080903 L 195.48989898989902 336.49496734071175 L 197.26879910213245 336.49640826094276 L 199.04769921436588 336.49744851972343 L 200.8265993265993 336.49819590232187 L 202.60549943883274 336.4987302785582 L 204.38439955106622 336.4991105171123 L 206.16329966329965 336.4993797773364 L 207.94219977553308 336.4995695341502 L 209.72109988776657 336.49970262054956 L 211.5 336.4997955135536 L 213.27890011223343 336.4998600414077 L 215.05780022446686 336.49990465098443 L 216.83670033670035 336.49993534313853 L 218.61560044893378 336.4999563589755 L 220.3945005611672 336.49997068044837 L 222.1734006734007 336.4999803934155 L 223.95230078563412 336.49998694944543 L 225.73120089786755 336.49999135353534 L 227.51010101010098 336.49999429795116 L 229.2890011223344 336.499996257117 L 231.0679012345679 336.49999755451665 L 232.84680134680133 336.4999984095994 L 234.62570145903476 336.4999989704868 L 236.40460157126824 336.4999993366525 L 238.18350168350167 336.49999957456396 L 239.9624017957351 336.4999997284113 L 241.7413019079686 336.4999998274267 L 243.52020202020202 336.49999989085086 L 245.29910213243545 336.4999999312849 L 247.07800224466894 336.4999999569405 L 248.8569023569023 336.4999999731421 L 250.6358024691358 336.4999999833252 L 252.41470258136923 336.4999999896953 L 254.19360269360266 336.49999999366133 L 255.97250280583614 336.499999996119 L 257.7514029180696 336.49999999763475 L 259.530303030303 336.49999999856516 L 261.3092031425365 336.4999999991336 L 263.0881032547699 336.49999999947926 L 264.86700336700335 336.4999999996885 L 266.6459034792368 336.49999999981446 L 268.42480359147027 336.49999999989006 L 270.2037037037037 336.49999999993514 L 271.9826038159371 336.4999999999619 L 273.7615039281706 336.4999999999777 L 275.540404040404 336.49999999998704 L 277.31930415263747 336.4999999999925 L 279.09820426487096 336.4999999999957 L 280.87710437710433 336.4999999999975 L 282.6560044893378 336.4999999999986 L 284.43490460157125 336.4999999999992 L 286.2138047138047 336.49999999999955 L 287.99270482603816 336.4999999999997 L 289.7716049382716 336.49999999999983 L 291.550505050505 336.49999999999994 L 293.32940516273845 336.49999999999994 L 295.10830527497194 336.5 L 296.88720538720537 336.5 L 298.6661054994388 336.5 L 300.4450056116723 336.5 L 302.2239057239057 336.5 L 304.00280583613915 336.5 L 305.78170594837263 336.5 L 307.56060606060606 336.5 L 309.3395061728395 336.5 L 311.1184062850729 336.5 L 312.89730639730635 336.5 L 314.67620650953984 336.5 L 316.45510662177327 336.5 L 318.2340067340067 336.5 L 320.0129068462401 336.5 L 321.7918069584736 336.5 L 323.5707070707071 336.5 L 325.3496071829405 336.5 L 327.12850729517396 336.5 L 328.9074074074074 336.5 L 330.6863075196408 336.5 L 332.4652076318743 336.5 L 334.24410774410774 336.5 L 336.02300785634117 336.5 L 337.8019079685746 336.5 L 339.5808080808081 336.5 L 341.3597081930415 336.5 L 343.13860830527494 336.5 L 344.91750841750843 336.5 L 346.69640852974186 336.5 L 348.4753086419753 336.5 L 350.2542087542088 336.5 L 352.0331088664422 336.5 L 353.81200897867564 336.5 L 355.5909090909091 336.5" stroke-linejoin="bevel" stroke-miterlimit="10" stroke-opacity="0.5"/></g></g></g><g clip-path="url(#alyGkHNQuNxd)"><g><g/><g><path fill="#ffffff" stroke="#e5e5e5" paint-order="fill stroke markers" d=" M 158.046875 42 L 360 42 L 360 151 L 158.046875 151 L 158.046875 42 Z" fill-opacity="0.95" stroke-linejoin="bevel" stroke-miterlimit="10" stroke-opacity="0.5"/><text fill="#444444" stroke="none" font-family="helvetica" font-size="10pt" font-style="normal" font-weight="normal" text-decoration="normal" x="193.046875" y="62" text-anchor="start" dominant-baseline="central">Exact solution</text><g><path fill="none" stroke="#000000" paint-order="fill stroke markers" d=" M 168.046875 62 L 188.046875 62" stroke-linejoin="bevel" stroke-miterlimit="10"/></g><text fill="#444444" stroke="none" font-family="helvetica" font-size="10pt" font-style="normal" font-weight="normal" text-decoration="normal" x="193.046875" y="85" text-anchor="start" dominant-baseline="central">Euler method</text><g><path fill="none" stroke="#FF0000" paint-order="fill stroke markers" d=" M 168.046875 85 L 188.046875 85" stroke-linejoin="bevel" stroke-miterlimit="10" stroke-opacity="0.5"/></g><text fill="#444444" stroke="none" font-family="helvetica" font-size="10pt" font-style="normal" font-weight="normal" text-decoration="normal" x="193.046875" y="108" text-anchor="start" dominant-baseline="central">Improved Euler method</text><g><path fill="none" stroke="#00FF00" paint-order="fill stroke markers" d=" M 168.046875 108 L 188.046875 108" stroke-linejoin="bevel" stroke-miterlimit="10" stroke-opacity="0.5"/></g><text fill="#444444" stroke="none" font-family="helvetica" font-size="10pt" font-style="normal" font-weight="normal" text-decoration="normal" x="193.046875" y="131" text-anchor="start" dominant-baseline="central">Runge-Kutta method</text><g><path fill="none" stroke="#0000FF" paint-order="fill stroke markers" d=" M 168.046875 131 L 188.046875 131" stroke-linejoin="bevel" stroke-miterlimit="10" stroke-opacity="0.5"/></g></g></g></g><g><g fill="#444444"><path fill="none" stroke="black" paint-order="fill stroke markers" d=" M 53 351 L 370 351" stroke-linejoin="bevel" stroke-miterlimit="10"/><path fill="none" stroke="black" paint-order="fill stroke markers" d=" M 67 357 L 67 349" stroke-linejoin="bevel" stroke-miterlimit="10"/><path fill="none" stroke="black" paint-order="fill stroke markers" d=" M 112 357 L 112 349" stroke-linejoin="bevel" stroke-miterlimit="10"/><path fill="none" stroke="black" paint-order="fill stroke markers" d=" M 157 357 L 157 349" stroke-linejoin="bevel" stroke-miterlimit="10"/><path fill="none" stroke="black" paint-order="fill stroke markers" d=" M 202 357 L 202 349" stroke-linejoin="bevel" stroke-miterlimit="10"/><path fill="none" stroke="black" paint-order="fill stroke markers" d=" M 248 357 L 248 349" stroke-linejoin="bevel" stroke-miterlimit="10"/><path fill="none" stroke="black" paint-order="fill stroke markers" d=" M 293 357 L 293 349" stroke-linejoin="bevel" stroke-miterlimit="10"/><path fill="none" stroke="black" paint-order="fill stroke markers" d=" M 338 357 L 338 349" stroke-linejoin="bevel" stroke-miterlimit="10"/><path fill="none" stroke="black" paint-order="fill stroke markers" d=" M 58 355 L 58 351" stroke-linejoin="bevel" stroke-miterlimit="10"/><path fill="none" stroke="black" paint-order="fill stroke markers" d=" M 67 355 L 67 351" stroke-linejoin="bevel" stroke-miterlimit="10"/><path fill="none" stroke="black" paint-order="fill stroke markers" d=" M 76 355 L 76 351" stroke-linejoin="bevel" stroke-miterlimit="10"/><path fill="none" stroke="black" paint-order="fill stroke markers" d=" M 85 355 L 85 351" stroke-linejoin="bevel" stroke-miterlimit="10"/><path fill="none" stroke="black" paint-order="fill stroke markers" d=" M 94 355 L 94 351" stroke-linejoin="bevel" stroke-miterlimit="10"/><path fill="none" stroke="black" paint-order="fill stroke markers" d=" M 103 355 L 103 351" stroke-linejoin="bevel" stroke-miterlimit="10"/><path fill="none" stroke="black" paint-order="fill stroke markers" d=" M 112 355 L 112 351" stroke-linejoin="bevel" stroke-miterlimit="10"/><path fill="none" stroke="black" paint-order="fill stroke markers" d=" M 121 355 L 121 351" stroke-linejoin="bevel" stroke-miterlimit="10"/><path fill="none" stroke="black" paint-order="fill stroke markers" d=" M 130 355 L 130 351" stroke-linejoin="bevel" stroke-miterlimit="10"/><path fill="none" stroke="black" paint-order="fill stroke markers" d=" M 139 355 L 139 351" stroke-linejoin="bevel" stroke-miterlimit="10"/><path fill="none" stroke="black" paint-order="fill stroke markers" d=" M 148 355 L 148 351" stroke-linejoin="bevel" stroke-miterlimit="10"/><path fill="none" stroke="black" paint-order="fill stroke markers" d=" M 157 355 L 157 351" stroke-linejoin="bevel" stroke-miterlimit="10"/><path fill="none" stroke="black" paint-order="fill stroke markers" d=" M 166 355 L 166 351" stroke-linejoin="bevel" stroke-miterlimit="10"/><path fill="none" stroke="black" paint-order="fill stroke markers" d=" M 175 355 L 175 351" stroke-linejoin="bevel" stroke-miterlimit="10"/><path fill="none" stroke="black" paint-order="fill stroke markers" d=" M 184 355 L 184 351" stroke-linejoin="bevel" stroke-miterlimit="10"/><path fill="none" stroke="black" paint-order="fill stroke markers" d=" M 193 355 L 193 351" stroke-linejoin="bevel" stroke-miterlimit="10"/><path fill="none" stroke="black" paint-order="fill stroke markers" d=" M 202 355 L 202 351" stroke-linejoin="bevel" stroke-miterlimit="10"/><path fill="none" stroke="black" paint-order="fill stroke markers" d=" M 212 355 L 212 351" stroke-linejoin="bevel" stroke-miterlimit="10"/><path fill="none" stroke="black" paint-order="fill stroke markers" d=" M 221 355 L 221 351" stroke-linejoin="bevel" stroke-miterlimit="10"/><path fill="none" stroke="black" paint-order="fill stroke markers" d=" M 230 355 L 230 351" stroke-linejoin="bevel" stroke-miterlimit="10"/><path fill="none" stroke="black" paint-order="fill stroke markers" d=" M 239 355 L 239 351" stroke-linejoin="bevel" stroke-miterlimit="10"/><path fill="none" stroke="black" paint-order="fill stroke markers" d=" M 248 355 L 248 351" stroke-linejoin="bevel" stroke-miterlimit="10"/><path fill="none" stroke="black" paint-order="fill stroke markers" d=" M 257 355 L 257 351" stroke-linejoin="bevel" stroke-miterlimit="10"/><path fill="none" stroke="black" paint-order="fill stroke markers" d=" M 266 355 L 266 351" stroke-linejoin="bevel" stroke-miterlimit="10"/><path fill="none" stroke="black" paint-order="fill stroke markers" d=" M 275 355 L 275 351" stroke-linejoin="bevel" stroke-miterlimit="10"/><path fill="none" stroke="black" paint-order="fill stroke markers" d=" M 284 355 L 284 351" stroke-linejoin="bevel" stroke-miterlimit="10"/><path fill="none" stroke="black" paint-order="fill stroke markers" d=" M 293 355 L 293 351" stroke-linejoin="bevel" stroke-miterlimit="10"/><path fill="none" stroke="black" paint-order="fill stroke markers" d=" M 302 355 L 302 351" stroke-linejoin="bevel" stroke-miterlimit="10"/><path fill="none" stroke="black" paint-order="fill stroke markers" d=" M 311 355 L 311 351" stroke-linejoin="bevel" stroke-miterlimit="10"/><path fill="none" stroke="black" paint-order="fill stroke markers" d=" M 320 355 L 320 351" stroke-linejoin="bevel" stroke-miterlimit="10"/><path fill="none" stroke="black" paint-order="fill stroke markers" d=" M 329 355 L 329 351" stroke-linejoin="bevel" stroke-miterlimit="10"/><path fill="none" stroke="black" paint-order="fill stroke markers" d=" M 338 355 L 338 351" stroke-linejoin="bevel" stroke-miterlimit="10"/><path fill="none" stroke="black" paint-order="fill stroke markers" d=" M 347 355 L 347 351" stroke-linejoin="bevel" stroke-miterlimit="10"/><path fill="none" stroke="black" paint-order="fill stroke markers" d=" M 356 355 L 356 351" stroke-linejoin="bevel" stroke-miterlimit="10"/><path fill="" stroke="black" paint-order="fill stroke markers" d=" M 365 355 L 365 351" stroke-linejoin="bevel" stroke-miterlimit="10"/><g transform="translate(67,362) rotate(0,0,0)"><text fill="" stroke="none" font-family="helvetica" font-size="8pt" font-style="normal" font-weight="normal" text-decoration="normal" x="0" y="0" text-anchor="middle" dominant-baseline="hanging">0</text><g transform="rotate(0,0,0) translate(-67,-362) translate(112,362) rotate(0,0,0)"><text fill="" stroke="none" font-family="helvetica" font-size="8pt" font-style="normal" font-weight="normal" text-decoration="normal" x="0" y="0" text-anchor="middle" dominant-baseline="hanging">1</text><g transform="rotate(0,0,0) translate(-112,-362) translate(157,362) rotate(0,0,0)"><text fill="" stroke="none" font-family="helvetica" font-size="8pt" font-style="normal" font-weight="normal" text-decoration="normal" x="0" y="0" text-anchor="middle" dominant-baseline="hanging">2</text><g transform="rotate(0,0,0) translate(-157,-362) translate(202,362) rotate(0,0,0)"><text fill="" stroke="none" font-family="helvetica" font-size="8pt" font-style="normal" font-weight="normal" text-decoration="normal" x="0" y="0" text-anchor="middle" dominant-baseline="hanging">3</text><g transform="rotate(0,0,0) translate(-202,-362) translate(248,362) rotate(0,0,0)"><text fill="" stroke="none" font-family="helvetica" font-size="8pt" font-style="normal" font-weight="normal" text-decoration="normal" x="0" y="0" text-anchor="middle" dominant-baseline="hanging">4</text><g transform="rotate(0,0,0) translate(-248,-362) translate(293,362) rotate(0,0,0)"><text fill="" stroke="none" font-family="helvetica" font-size="8pt" font-style="normal" font-weight="normal" text-decoration="normal" x="0" y="0" text-anchor="middle" dominant-baseline="hanging">5</text><g transform="rotate(0,0,0) translate(-293,-362) translate(338,362) rotate(0,0,0)"><text fill="" stroke="none" font-family="helvetica" font-size="8pt" font-style="normal" font-weight="normal" text-decoration="normal" x="0" y="0" text-anchor="middle" dominant-baseline="hanging">6</text><g transform="rotate(0,0,0) translate(-338,-362) translate(212,382) rotate(0,0,0)"><text fill="" stroke="none" font-family="helvetica" font-size="10pt" font-style="italic" font-weight="normal" text-decoration="normal" x="0" y="0" text-anchor="middle" dominant-baseline="hanging">x</text><g transform="rotate(0,0,0) translate(-212,-382)"/></g></g></g></g></g></g></g></g></g><g fill="#444444"><path fill="none" stroke="black" paint-order="fill stroke markers" d=" M 53 351 L 53 32" stroke-linejoin="bevel" stroke-miterlimit="10"/><path fill="none" stroke="black" paint-order="fill stroke markers" d=" M 47 337 L 55 337" stroke-linejoin="bevel" stroke-miterlimit="10"/><path fill="none" stroke="black" paint-order="fill stroke markers" d=" M 47 264 L 55 264" stroke-linejoin="bevel" stroke-miterlimit="10"/><path fill="none" stroke="black" paint-order="fill stroke markers" d=" M 47 192 L 55 192" stroke-linejoin="bevel" stroke-miterlimit="10"/><path fill="none" stroke="black" paint-order="fill stroke markers" d=" M 47 119 L 55 119" stroke-linejoin="bevel" stroke-miterlimit="10"/><path fill="none" stroke="black" paint-order="fill stroke markers" d=" M 47 47 L 55 47" stroke-linejoin="bevel" stroke-miterlimit="10"/><path fill="none" stroke="black" paint-order="fill stroke markers" d=" M 49 351 L 53 351" stroke-linejoin="bevel" stroke-miterlimit="10"/><path fill="none" stroke="black" paint-order="fill stroke markers" d=" M 49 337 L 53 337" stroke-linejoin="bevel" stroke-miterlimit="10"/><path fill="none" stroke="black" paint-order="fill stroke markers" d=" M 49 322 L 53 322" stroke-linejoin="bevel" stroke-miterlimit="10"/><path fill="none" stroke="black" paint-order="fill stroke markers" d=" M 49 308 L 53 308" stroke-linejoin="bevel" stroke-miterlimit="10"/><path fill="none" stroke="black" paint-order="fill stroke markers" d=" M 49 293 L 53 293" stroke-linejoin="bevel" stroke-miterlimit="10"/><path fill="none" stroke="black" paint-order="fill stroke markers" d=" M 49 279 L 53 279" stroke-linejoin="bevel" stroke-miterlimit="10"/><path fill="none" stroke="black" paint-order="fill stroke markers" d=" M 49 264 L 53 264" stroke-linejoin="bevel" stroke-miterlimit="10"/><path fill="none" stroke="black" paint-order="fill stroke markers" d=" M 49 250 L 53 250" stroke-linejoin="bevel" stroke-miterlimit="10"/><path fill="none" stroke="black" paint-order="fill stroke markers" d=" M 49 235 L 53 235" stroke-linejoin="bevel" stroke-miterlimit="10"/><path fill="none" stroke="black" paint-order="fill stroke markers" d=" M 49 221 L 53 221" stroke-linejoin="bevel" stroke-miterlimit="10"/><path fill="none" stroke="black" paint-order="fill stroke markers" d=" M 49 206 L 53 206" stroke-linejoin="bevel" stroke-miterlimit="10"/><path fill="none" stroke="black" paint-order="fill stroke markers" d=" M 49 192 L 53 192" stroke-linejoin="bevel" stroke-miterlimit="10"/><path fill="none" stroke="black" paint-order="fill stroke markers" d=" M 49 177 L 53 177" stroke-linejoin="bevel" stroke-miterlimit="10"/><path fill="none" stroke="black" paint-order="fill stroke markers" d=" M 49 163 L 53 163" stroke-linejoin="bevel" stroke-miterlimit="10"/><path fill="none" stroke="black" paint-order="fill stroke markers" d=" M 49 148 L 53 148" stroke-linejoin="bevel" stroke-miterlimit="10"/><path fill="none" stroke="black" paint-order="fill stroke markers" d=" M 49 134 L 53 134" stroke-linejoin="bevel" stroke-miterlimit="10"/><path fill="none" stroke="black" paint-order="fill stroke markers" d=" M 49 119 L 53 119" stroke-linejoin="bevel" stroke-miterlimit="10"/><path fill="none" stroke="black" paint-order="fill stroke markers" d=" M 49 105 L 53 105" stroke-linejoin="bevel" stroke-miterlimit="10"/><path fill="none" stroke="black" paint-order="fill stroke markers" d=" M 49 90 L 53 90" stroke-linejoin="bevel" stroke-miterlimit="10"/><path fill="none" stroke="black" paint-order="fill stroke markers" d=" M 49 76 L 53 76" stroke-linejoin="bevel" stroke-miterlimit="10"/><path fill="none" stroke="black" paint-order="fill stroke markers" d=" M 49 61 L 53 61" stroke-linejoin="bevel" stroke-miterlimit="10"/><path fill="none" stroke="black" paint-order="fill stroke markers" d=" M 49 47 L 53 47" stroke-linejoin="bevel" stroke-miterlimit="10"/><path fill="" stroke="black" paint-order="fill stroke markers" d=" M 49 32 L 53 32" stroke-linejoin="bevel" stroke-miterlimit="10"/><g transform="translate(42,337) rotate(0,0,0)"><text fill="" stroke="none" font-family="helvetica" font-size="8pt" font-style="normal" font-weight="normal" text-decoration="normal" x="0" y="0" text-anchor="end" dominant-baseline="central">0</text><g transform="rotate(0,0,0) translate(-42,-337) translate(42,264) rotate(0,0,0)"><text fill="" stroke="none" font-family="helvetica" font-size="8pt" font-style="normal" font-weight="normal" text-decoration="normal" x="0" y="0" text-anchor="end" dominant-baseline="central">0.5</text><g transform="rotate(0,0,0) translate(-42,-264) translate(42,192) rotate(0,0,0)"><text fill="" stroke="none" font-family="helvetica" font-size="8pt" font-style="normal" font-weight="normal" text-decoration="normal" x="0" y="0" text-anchor="end" dominant-baseline="central">1</text><g transform="rotate(0,0,0) translate(-42,-192) translate(42,119) rotate(0,0,0)"><text fill="" stroke="none" font-family="helvetica" font-size="8pt" font-style="normal" font-weight="normal" text-decoration="normal" x="0" y="0" text-anchor="end" dominant-baseline="central">1.5</text><g transform="rotate(0,0,0) translate(-42,-119) translate(42,47) rotate(0,0,0)"><text fill="" stroke="none" font-family="helvetica" font-size="8pt" font-style="normal" font-weight="normal" text-decoration="normal" x="0" y="0" text-anchor="end" dominant-baseline="central">2</text><g transform="rotate(0,0,0) translate(-42,-47) translate(18,192) rotate(-90,0,0)"><text fill="" stroke="none" font-family="helvetica" font-size="10pt" font-style="italic" font-weight="normal" text-decoration="normal" x="0" y="0" text-anchor="middle" dominant-baseline="alphabetic">y</text><g transform="rotate(90,0,0) translate(-18,-192)"/></g></g></g></g></g></g></g><g fill="#444444"><path fill="" stroke="none" d=""/><g transform="translate(53,27)"><path fill="none" stroke="none"/><text fill="" stroke="none" font-family="helvetica" font-size="10pt" font-style="normal" font-weight="bold" text-decoration="normal" x="0" y="0" text-anchor="start" dominant-baseline="text-after-edge">Methods Comparison</text></g></g></g></g></g></svg>